<svg width="36" height="36" viewBox="0 0 36 36" fill="none" xmlns="http://www.w3.org/2000/svg">
<circle cx="18" cy="18" r="18" fill="#97EB0D"/>
<path d="M16 28C15.4477 28 15 27.5523 15 27V22C15 21.4477 14.5523 21 14 21H9C8.44772 21 8 20.5523 8 20V16C8 15.4477 8.44772 15 9 15H14C14.5523 15 15 14.5523 15 14V9C15 8.44772 15.4477 8 16 8H20C20.5523 8 21 8.44772 21 9V14C21 14.5523 21.4477 15 22 15H27C27.5523 15 28 15.4477 28 16V20C28 20.5523 27.5523 21 27 21H22C21.4477 21 21 21.4477 21 22V27C21 27.5523 20.5523 28 20 28H16Z" fill="white"/>
</svg>
