<svg width="24" height="24" viewBox="0 0 24 24" fill="none" xmlns="http://www.w3.org/2000/svg">
<circle cx="12" cy="12" r="12" fill="#97EB0D"/>
<path d="M11.3287 18.6673C10.7764 18.6673 10.3287 18.2196 10.3287 17.6673V14.6707C10.3287 14.1184 9.88098 13.6707 9.32869 13.6707H6.33203C5.77975 13.6707 5.33203 13.2229 5.33203 12.6707V11.3306C5.33203 10.7784 5.77975 10.3306 6.33203 10.3306H9.32869C9.88098 10.3306 10.3287 9.88293 10.3287 9.33064V6.33398C10.3287 5.7817 10.7764 5.33398 11.3287 5.33398H12.6687C13.221 5.33398 13.6687 5.7817 13.6687 6.33398V9.33064C13.6687 9.88293 14.1164 10.3306 14.6687 10.3306H17.6654C18.2176 10.3306 18.6654 10.7784 18.6654 11.3306V12.6707C18.6654 13.2229 18.2176 13.6707 17.6654 13.6707H14.6687C14.1164 13.6707 13.6687 14.1184 13.6687 14.6707V17.6673C13.6687 18.2196 13.221 18.6673 12.6687 18.6673H11.3287Z" fill="white"/>
</svg>
