<svg width="16" height="15" viewBox="0 0 16 15" fill="none" xmlns="http://www.w3.org/2000/svg">
<path fill-rule="evenodd" clip-rule="evenodd" d="M6.2224 14.6667H9.7776C12.2744 14.6667 13.5232 14.6667 14.42 14.0678C14.8071 13.8096 15.1403 13.4762 15.4008 13.0867C16 12.1905 16 10.9413 16 8.44476C16 5.94817 16 4.69906 15.4008 3.80277C15.1403 3.41328 14.8071 3.07992 14.42 2.82173C13.844 2.43633 13.1224 2.29862 12.0176 2.24974C11.4904 2.24974 11.0368 1.85048 10.9336 1.33307C10.8547 0.954077 10.6498 0.614436 10.3535 0.371553C10.0571 0.128669 9.68756 -0.00256243 9.3072 3.79139e-05H6.6928C5.9024 3.79139e-05 5.2216 0.558185 5.0664 1.33307C4.9632 1.85048 4.5096 2.24974 3.9824 2.24974C2.8784 2.29862 2.1568 2.43714 1.58 2.82173C1.19323 3.08 0.860219 3.41336 0.6 3.80277C0 4.69906 0 5.94736 0 8.44476C0 10.9422 3.97364e-08 12.1896 0.5992 13.0867C0.8584 13.4746 1.1912 13.8079 1.58 14.0678C2.4768 14.6667 3.7256 14.6667 6.2224 14.6667ZM8 5.11136C6.1592 5.11136 4.6664 6.60328 4.6664 8.44394C4.6664 10.2846 6.16 11.779 8 11.779C9.84 11.779 11.3336 10.2862 11.3336 8.44557C11.3336 6.60491 9.84 5.11136 8 5.11136ZM8 6.44439C6.896 6.44439 6 7.33987 6 8.44476C6 9.54883 6.896 10.4443 8 10.4443C9.104 10.4443 10 9.54883 10 8.44476C10 7.34069 9.104 6.44439 8 6.44439ZM11.7776 5.77788C11.7776 5.40958 12.076 5.11136 12.4448 5.11136H13.3328C13.7008 5.11136 14 5.40958 14 5.77788C13.9983 5.95624 13.9272 6.12662 13.8022 6.25159C13.6773 6.37657 13.5087 6.44591 13.3336 6.44439H12.4448C12.358 6.44525 12.2719 6.4287 12.1914 6.39566C12.1109 6.36263 12.0376 6.31378 11.9757 6.25188C11.9137 6.18999 11.8643 6.11628 11.8303 6.03494C11.7964 5.95361 11.7784 5.86626 11.7776 5.77788Z" fill="white"/>
</svg>
