<svg width="36" height="36" viewBox="0 0 36 36" fill="none" xmlns="http://www.w3.org/2000/svg">
<path d="M3.00001 31.5C2.57501 31.5 2.21901 31.356 1.93201 31.068C1.64501 30.78 1.50101 30.424 1.50001 30C1.49901 29.576 1.64301 29.22 1.93201 28.932C2.22101 28.644 2.57701 28.5 3.00001 28.5H33C33.425 28.5 33.7815 28.644 34.0695 28.932C34.3575 29.22 34.501 29.576 34.5 30C34.499 30.424 34.355 30.7805 34.068 31.0695C33.781 31.3585 33.425 31.502 33 31.5H3.00001ZM6 27C5.175 27 4.46901 26.7065 3.88201 26.1195C3.29501 25.5325 3.00101 24.826 3.00001 24V7.5C3.00001 6.675 3.29401 5.969 3.88201 5.382C4.47001 4.795 5.176 4.501 6 4.5H30C30.825 4.5 31.5315 4.794 32.1195 5.382C32.7075 5.97 33.001 6.676 33 7.5V24C33 24.825 32.7065 25.5315 32.1195 26.1195C31.5325 26.7075 30.826 27.001 30 27H6Z" fill="#636363"/>
</svg>
