<svg width="16" height="17" viewBox="0 0 16 17" fill="none" xmlns="http://www.w3.org/2000/svg">
<path d="M6.66536 4.50065H9.33203C9.33203 4.14703 9.19155 3.80789 8.94151 3.55784C8.69146 3.30779 8.35232 3.16732 7.9987 3.16732C7.64508 3.16732 7.30594 3.30779 7.05589 3.55784C6.80584 3.80789 6.66536 4.14703 6.66536 4.50065ZM5.33203 4.50065C5.33203 3.79341 5.61298 3.11513 6.11308 2.61503C6.61318 2.11494 7.29145 1.83398 7.9987 1.83398C8.70594 1.83398 9.38422 2.11494 9.88432 2.61503C10.3844 3.11513 10.6654 3.79341 10.6654 4.50065H13.9987C14.1755 4.50065 14.3451 4.57089 14.4701 4.69591C14.5951 4.82094 14.6654 4.99051 14.6654 5.16732C14.6654 5.34413 14.5951 5.5137 14.4701 5.63872C14.3451 5.76375 14.1755 5.83398 13.9987 5.83398H13.4107L12.82 12.7273C12.7632 13.393 12.4587 14.013 11.9666 14.4649C11.4745 14.9167 10.8308 15.1674 10.1627 15.1673H5.8347C5.16664 15.1674 4.52288 14.9167 4.0308 14.4649C3.53871 14.013 3.23415 13.393 3.17736 12.7273L2.5867 5.83398H1.9987C1.82189 5.83398 1.65232 5.76375 1.52729 5.63872C1.40227 5.5137 1.33203 5.34413 1.33203 5.16732C1.33203 4.99051 1.40227 4.82094 1.52729 4.69591C1.65232 4.57089 1.82189 4.50065 1.9987 4.50065H5.33203ZM9.9987 8.50065C9.9987 8.32384 9.92846 8.15427 9.80344 8.02925C9.67841 7.90422 9.50884 7.83398 9.33203 7.83398C9.15522 7.83398 8.98565 7.90422 8.86063 8.02925C8.7356 8.15427 8.66536 8.32384 8.66536 8.50065V11.1673C8.66536 11.3441 8.7356 11.5137 8.86063 11.6387C8.98565 11.7637 9.15522 11.834 9.33203 11.834C9.50884 11.834 9.67841 11.7637 9.80344 11.6387C9.92846 11.5137 9.9987 11.3441 9.9987 11.1673V8.50065ZM6.66536 7.83398C6.48855 7.83398 6.31898 7.90422 6.19396 8.02925C6.06894 8.15427 5.9987 8.32384 5.9987 8.50065V11.1673C5.9987 11.3441 6.06894 11.5137 6.19396 11.6387C6.31898 11.7637 6.48855 11.834 6.66536 11.834C6.84218 11.834 7.01174 11.7637 7.13677 11.6387C7.26179 11.5137 7.33203 11.3441 7.33203 11.1673V8.50065C7.33203 8.32384 7.26179 8.15427 7.13677 8.02925C7.01174 7.90422 6.84218 7.83398 6.66536 7.83398Z" fill="#A1A1A1"/>
</svg>
