<svg width="40" height="40" viewBox="0 0 40 40" fill="none" xmlns="http://www.w3.org/2000/svg">
<circle cx="20" cy="20" r="20" fill="#D6D6D6"/>
<path d="M27.9989 14C28.2538 14.0003 28.4989 14.0979 28.6843 14.2728C28.8696 14.4478 28.9811 14.687 28.9961 14.9414C29.011 15.1958 28.9282 15.4464 28.7646 15.6418C28.601 15.8373 28.369 15.9629 28.1159 15.993L27.9989 16H27.9179L26.9989 27C26.9989 27.7652 26.7066 28.5015 26.1816 29.0583C25.6566 29.615 24.9388 29.9501 24.1749 29.995L23.9989 30H15.9989C14.4009 30 13.0949 28.751 13.0069 27.25L13.0019 27.083L12.0789 16H11.9989C11.744 15.9997 11.4989 15.9021 11.3135 15.7272C11.1282 15.5522 11.0167 15.313 11.0017 15.0586C10.9868 14.8042 11.0696 14.5536 11.2332 14.3582C11.3967 14.1627 11.6288 14.0371 11.8819 14.007L11.9989 14H27.9989ZM21.9989 10C22.5293 10 23.038 10.2107 23.4131 10.5858C23.7882 10.9609 23.9989 11.4696 23.9989 12C23.9986 12.2549 23.901 12.5 23.726 12.6854C23.5511 12.8707 23.3119 12.9822 23.0575 12.9972C22.8031 13.0121 22.5525 12.9293 22.3571 12.7657C22.1616 12.6021 22.036 12.3701 22.0059 12.117L21.9989 12H17.9989L17.9919 12.117C17.9618 12.3701 17.8362 12.6021 17.6407 12.7657C17.4453 12.9293 17.1947 13.0121 16.9403 12.9972C16.6858 12.9822 16.4467 12.8707 16.2717 12.6854C16.0968 12.5 15.9992 12.2549 15.9989 12C15.9987 11.4954 16.1893 11.0094 16.5324 10.6395C16.8755 10.2695 17.3457 10.0428 17.8489 10.005L17.9989 10H21.9989Z" fill="white"/>
</svg>
