<svg width="36" height="36" viewBox="0 0 36 36" fill="none" xmlns="http://www.w3.org/2000/svg">
<path fill-rule="evenodd" clip-rule="evenodd" d="M25.4983 4.5C26.2552 4.49976 26.9842 4.78561 27.5392 5.30025C28.0941 5.81488 28.4341 6.52027 28.4908 7.275L28.4983 7.5V28.5H29.9983C30.3807 28.5004 30.7484 28.6468 31.0264 28.9093C31.3044 29.1717 31.4717 29.5304 31.4941 29.9121C31.5165 30.2938 31.3923 30.6696 31.1469 30.9627C30.9016 31.2559 30.5535 31.4443 30.1738 31.4895L29.9983 31.5H5.99834C5.61602 31.4996 5.24829 31.3532 4.97029 31.0907C4.69228 30.8283 4.52499 30.4696 4.50258 30.0879C4.48017 29.7062 4.60435 29.3304 4.84974 29.0373C5.09512 28.7441 5.44319 28.5557 5.82284 28.5105L5.99834 28.5H7.49834V7.5C7.4981 6.74314 7.78395 6.01415 8.29858 5.45918C8.81322 4.90421 9.51861 4.56427 10.2733 4.5075L10.4983 4.5H25.4983ZM21.7483 16.5C21.4529 16.5 21.1603 16.5582 20.8873 16.6713C20.6143 16.7843 20.3663 16.9501 20.1573 17.159C19.9484 17.3679 19.7827 17.616 19.6696 17.889C19.5565 18.1619 19.4983 18.4545 19.4983 18.75C19.4983 19.0455 19.5565 19.3381 19.6696 19.611C19.7827 19.884 19.9484 20.1321 20.1573 20.341C20.3663 20.5499 20.6143 20.7157 20.8873 20.8287C21.1603 20.9418 21.4529 21 21.7483 21C22.3451 21 22.9174 20.7629 23.3393 20.341C23.7613 19.919 23.9983 19.3467 23.9983 18.75C23.9983 18.1533 23.7613 17.581 23.3393 17.159C22.9174 16.7371 22.3451 16.5 21.7483 16.5Z" fill="#636363"/>
</svg>
