<svg width="16" height="17" viewBox="0 0 16 17" fill="none" xmlns="http://www.w3.org/2000/svg">
<path d="M12.75 4H5.75C5.15326 4 4.58097 4.23705 4.15901 4.65901C3.73705 5.08097 3.5 5.65326 3.5 6.25V13.25C3.5 13.8467 3.73705 14.419 4.15901 14.841C4.58097 15.2629 5.15326 15.5 5.75 15.5H12.75C13.3467 15.5 13.919 15.2629 14.341 14.841C14.7629 14.419 15 13.8467 15 13.25V6.25C15 5.65326 14.7629 5.08097 14.341 4.65901C13.919 4.23705 13.3467 4 12.75 4ZM11.7359 10.25H9.75V12.2359C9.75 12.505 9.54312 12.7359 9.27406 12.7494C9.20646 12.7526 9.1389 12.7421 9.07547 12.7185C9.01204 12.6949 8.95407 12.6586 8.90508 12.6119C8.85608 12.5652 8.81707 12.5091 8.79041 12.4469C8.76375 12.3847 8.75001 12.3177 8.75 12.25V10.25H6.76406C6.495 10.25 6.26406 10.0431 6.25063 9.77406C6.24737 9.70646 6.25787 9.6389 6.2815 9.57547C6.30512 9.51204 6.34138 9.45407 6.38807 9.40508C6.43476 9.35608 6.49091 9.31707 6.55313 9.29041C6.61534 9.26375 6.68232 9.25001 6.75 9.25H8.75V7.26406C8.75 6.995 8.95688 6.76406 9.22594 6.75063C9.29354 6.74737 9.3611 6.75787 9.42453 6.7815C9.48796 6.80512 9.54593 6.84138 9.59492 6.88807C9.64392 6.93476 9.68293 6.99091 9.70959 7.05313C9.73625 7.11534 9.74999 7.18232 9.75 7.25V9.25H11.75C11.8177 9.24992 11.8848 9.26361 11.9471 9.29023C12.0094 9.31684 12.0656 9.35584 12.1123 9.40485C12.1591 9.45386 12.1954 9.51186 12.2191 9.57532C12.2427 9.63879 12.2533 9.7064 12.25 9.77406C12.2369 10.0431 12.005 10.25 11.7359 10.25Z" fill="#A1A1A1"/>
<path d="M12.3713 3C12.2157 2.56164 11.9283 2.18215 11.5485 1.91359C11.1687 1.64503 10.7151 1.50056 10.25 1.5H3.25C2.65326 1.5 2.08097 1.73705 1.65901 2.15901C1.23705 2.58097 1 3.15326 1 3.75V10.75C1.00056 11.2151 1.14503 11.6687 1.41359 12.0485C1.68215 12.4283 2.06164 12.7157 2.5 12.8713V5.5C2.5 4.83696 2.76339 4.20107 3.23223 3.73223C3.70107 3.26339 4.33696 3 5 3H12.3713Z" fill="#A1A1A1"/>
</svg>
