<svg width="16" height="17" viewBox="0 0 16 17" fill="none" xmlns="http://www.w3.org/2000/svg">
<path fill-rule="evenodd" clip-rule="evenodd" d="M12.287 3.16732C12.1497 3.16732 12.0138 3.19435 11.887 3.24687C11.7602 3.29939 11.645 3.37637 11.548 3.47341L3.50309 11.5183L2.94886 13.5505L4.98105 12.9963L13.026 4.95137C13.123 4.85433 13.2 4.73912 13.2525 4.61232C13.305 4.48553 13.332 4.34963 13.332 4.21239C13.332 4.07515 13.305 3.93925 13.2525 3.81246C13.2 3.68567 13.123 3.57046 13.026 3.47341C12.9289 3.37637 12.8137 3.29939 12.6869 3.24687C12.5601 3.19435 12.4242 3.16732 12.287 3.16732ZM11.3768 2.01503C11.6654 1.8955 11.9746 1.83398 12.287 1.83398C12.5993 1.83398 12.9086 1.8955 13.1971 2.01503C13.4857 2.13456 13.7479 2.30975 13.9688 2.5306C14.1896 2.75146 14.3648 3.01365 14.4843 3.30221C14.6039 3.59078 14.6654 3.90006 14.6654 4.21239C14.6654 4.52473 14.6039 4.83401 14.4843 5.12257C14.3648 5.41113 14.1896 5.67332 13.9688 5.89418L5.79867 14.0643C5.71664 14.1463 5.61461 14.2055 5.50268 14.236L2.17412 15.1438C1.94332 15.2068 1.69648 15.1412 1.52731 14.9721C1.35814 14.8029 1.29259 14.556 1.35554 14.3252L2.26333 10.9967C2.29385 10.8848 2.35306 10.7827 2.4351 10.7007L10.6052 2.5306C10.826 2.30975 11.0882 2.13456 11.3768 2.01503Z" fill="#A1A1A1"/>
</svg>
