<svg width="40" height="40" viewBox="0 0 40 40" fill="none" xmlns="http://www.w3.org/2000/svg">
<circle cx="20" cy="20" r="20" fill="#97EB0D"/>
<path d="M10.4003 30C9.71407 30 9.23173 29.3246 9.45444 28.6755L15.9733 9.67547C16.1119 9.27139 16.4919 9 16.9191 9H22.1092C22.5369 9 22.9172 9.27196 23.0555 9.67665L29.5478 28.6767C29.7695 29.3255 29.2873 30 28.6015 30H25.3707C24.9355 30 24.5503 29.7186 24.418 29.3041L23.4272 26.2C23.2948 25.7855 22.9097 25.5041 22.4745 25.5041H16.5548C16.1196 25.5041 15.7344 25.7855 15.6021 26.2L14.6113 29.3041C14.4789 29.7186 14.0938 30 13.6586 30H10.4003ZM20.6362 21.7334C21.3131 21.7334 21.7945 21.075 21.5891 20.43L19.6292 14.2757C19.6133 14.2258 19.567 14.192 19.5146 14.192C19.4623 14.192 19.416 14.2258 19.4001 14.2757L17.4402 20.43C17.2348 21.075 17.7161 21.7334 18.3931 21.7334H20.6362Z" fill="white"/>
</svg>
