<svg width="124" height="124" viewBox="0 0 124 124" fill="none" xmlns="http://www.w3.org/2000/svg">
<mask id="path-1-inside-1_2340_12600" fill="white">
<path fill-rule="evenodd" clip-rule="evenodd" d="M105.823 3.6752C103.273 1.31169 99.9251 -0.00109863 96.4487 6.89866e-07H27.5513L26.5179 0.0344466C23.0513 0.295144 19.8113 1.85635 17.4475 4.40511C15.0837 6.95388 13.7707 10.3018 13.7718 13.7778V110.222H6.88211L6.076 110.27C4.33224 110.478 2.73348 111.343 1.60639 112.69C0.479297 114.036 -0.0910622 115.762 0.0118506 117.515C0.114763 119.268 0.88318 120.915 2.1601 122.12C3.43701 123.326 5.12605 123.998 6.88211 124H117.118L117.924 123.952C119.668 123.744 121.267 122.879 122.394 121.533C123.521 120.186 124.091 118.46 123.988 116.707C123.885 114.955 123.117 113.307 121.84 112.102C120.563 110.896 118.874 110.224 117.118 110.222H110.228V13.7778L110.194 12.7444C109.933 9.27826 108.372 6.03871 105.823 3.6752Z"/>
</mask>
<path fill-rule="evenodd" clip-rule="evenodd" d="M105.823 3.6752C103.273 1.31169 99.9251 -0.00109863 96.4487 6.89866e-07H27.5513L26.5179 0.0344466C23.0513 0.295144 19.8113 1.85635 17.4475 4.40511C15.0837 6.95388 13.7707 10.3018 13.7718 13.7778V110.222H6.88211L6.076 110.27C4.33224 110.478 2.73348 111.343 1.60639 112.69C0.479297 114.036 -0.0910622 115.762 0.0118506 117.515C0.114763 119.268 0.88318 120.915 2.1601 122.12C3.43701 123.326 5.12605 123.998 6.88211 124H117.118L117.924 123.952C119.668 123.744 121.267 122.879 122.394 121.533C123.521 120.186 124.091 118.46 123.988 116.707C123.885 114.955 123.117 113.307 121.84 112.102C120.563 110.896 118.874 110.224 117.118 110.222H110.228V13.7778L110.194 12.7444C109.933 9.27826 108.372 6.03871 105.823 3.6752Z" fill="white"/>
<path d="M96.4487 6.89866e-07V7L96.4509 7L96.4487 6.89866e-07ZM105.823 3.6752L101.063 8.80825L101.063 8.80826L105.823 3.6752ZM27.5513 6.89866e-07V-7H27.4347L27.3181 -6.99611L27.5513 6.89866e-07ZM26.5179 0.0344466L26.2847 -6.96167L26.1386 -6.9568L25.9929 -6.94584L26.5179 0.0344466ZM17.4475 4.40511L12.315 -0.354904L12.315 -0.354903L17.4475 4.40511ZM13.7718 13.7778H20.7718L20.7718 13.7756L13.7718 13.7778ZM13.7718 110.222V117.222H20.7718V110.222H13.7718ZM6.88211 110.222V103.222H6.6729L6.46407 103.235L6.88211 110.222ZM6.076 110.27L5.65797 103.283L5.45313 103.295L5.24936 103.319L6.076 110.27ZM1.60639 112.69L6.97402 117.183L6.97403 117.183L1.60639 112.69ZM0.0118506 117.515L6.99982 117.105L0.0118506 117.515ZM2.1601 122.12L-2.64494 127.211H-2.64494L2.1601 122.12ZM6.88211 124L6.87435 131H6.88211V124ZM117.118 124V131H117.327L117.536 130.988L117.118 124ZM117.924 123.952L118.342 130.939L118.547 130.927L118.751 130.903L117.924 123.952ZM122.394 121.533L117.026 117.039L122.394 121.533ZM117.118 110.222L117.126 103.222H117.118V110.222ZM110.228 110.222H103.228V117.222H110.228V110.222ZM110.228 13.7778H117.228V13.6612L117.224 13.5446L110.228 13.7778ZM110.194 12.7444L117.19 12.5113L117.185 12.3652L117.174 12.2194L110.194 12.7444ZM96.4509 7C98.1616 6.99946 99.8091 7.64546 101.063 8.80825L110.582 -1.45785C106.738 -5.02208 101.689 -7.00166 96.4465 -7L96.4509 7ZM27.5513 7H96.4487V-7H27.5513V7ZM26.751 7.03056L27.7845 6.99612L27.3181 -6.99611L26.2847 -6.96167L26.751 7.03056ZM22.58 9.16513C23.7429 7.91124 25.337 7.14302 27.0428 7.01474L25.9929 -6.94584C20.7655 -6.55273 15.8797 -4.19853 12.315 -0.354904L22.58 9.16513ZM20.7718 13.7756C20.7713 12.0659 21.4171 10.419 22.58 9.16513L12.315 -0.354903C8.75031 3.48875 6.77019 8.53775 6.77184 13.78L20.7718 13.7756ZM20.7718 110.222V13.7778H6.77184V110.222H20.7718ZM6.88211 117.222H13.7718V103.222H6.88211V117.222ZM6.49404 117.258L7.30014 117.21L6.46407 103.235L5.65797 103.283L6.49404 117.258ZM6.97403 117.183C6.95589 117.204 6.93032 117.218 6.90265 117.221L5.24936 103.319C1.73416 103.737 -1.48893 105.482 -3.76125 108.196L6.97403 117.183ZM6.99982 117.105C7.00149 117.133 6.9922 117.161 6.97402 117.183L-3.76124 108.196C-6.0336 110.911 -7.18362 114.391 -6.97612 117.925L6.99982 117.105ZM6.96513 117.03C6.98563 117.049 6.99814 117.076 6.99982 117.105L-6.97612 117.925C-6.76861 121.459 -5.21927 124.781 -2.64494 127.211L6.96513 117.03ZM6.88986 117C6.91771 117 6.94465 117.011 6.96513 117.03L-2.64494 127.211C-0.0706171 129.641 3.33439 130.996 6.87435 131L6.88986 117ZM117.118 117H6.88211V131H117.118V117ZM117.506 116.964L116.7 117.012L117.536 130.988L118.342 130.939L117.506 116.964ZM117.026 117.039C117.044 117.018 117.07 117.004 117.097 117.001L118.751 130.903C122.266 130.485 125.489 128.74 127.761 126.026L117.026 117.039ZM117 117.118C116.999 117.089 117.008 117.061 117.026 117.039L127.761 126.026C130.034 123.311 131.184 119.831 130.976 116.297L117 117.118ZM117.035 117.192C117.014 117.173 117.002 117.146 117 117.118L130.976 116.297C130.769 112.763 129.219 109.442 126.645 107.011L117.035 117.192ZM117.11 117.222C117.082 117.222 117.055 117.212 117.035 117.192L126.645 107.011C124.071 104.581 120.666 103.226 117.126 103.222L117.11 117.222ZM110.228 117.222H117.118V103.222H110.228V117.222ZM103.228 13.7778V110.222H117.228V13.7778H103.228ZM103.198 12.9776L103.232 14.0109L117.224 13.5446L117.19 12.5113L103.198 12.9776ZM101.063 8.80826C102.317 9.97103 103.085 11.5646 103.213 13.2695L117.174 12.2194C116.781 6.9919 114.426 2.1064 110.582 -1.45786L101.063 8.80826Z" fill="#D6D6D6" mask="url(#path-1-inside-1_2340_12600)"/>
<rect x="15.1875" y="110.202" width="99.2608" height="8.38823" fill="#D9D9D9"/>
<path d="M88.5724 69.3806C84.4959 69.3806 81.1914 66.0761 81.1914 61.9996C81.1914 57.9231 84.4959 54.6187 88.5724 54.6187C92.6489 54.6187 95.9533 57.9231 95.9533 61.9996C95.9533 66.0761 92.6489 69.3806 88.5724 69.3806ZM87.8343 62.5842V64.952H89.3105V62.5842C89.699 62.4146 90.0173 62.1164 90.2118 61.7398C90.4064 61.3631 90.4653 60.931 90.3787 60.516C90.2921 60.101 90.0652 59.7285 89.7362 59.4611C89.4073 59.1937 88.9963 59.0477 88.5724 59.0477C88.1484 59.0477 87.7374 59.1937 87.4085 59.4611C87.0795 59.7285 86.8527 60.101 86.766 60.516C86.6794 60.931 86.7383 61.3631 86.9329 61.7398C87.1274 62.1164 87.4457 62.4146 87.8343 62.5842Z" fill="#A1A1A1"/>
</svg>