<svg width="32" height="32" viewBox="0 0 32 32" fill="none" xmlns="http://www.w3.org/2000/svg">
<path d="M15.9988 4C16.3253 4.00004 16.6405 4.11994 16.8846 4.33695C17.1286 4.55397 17.2845 4.853 17.3228 5.17733L17.3321 5.33333V6.66667H19.3321C21.9558 6.66733 24.4741 7.69908 26.344 9.53944C28.2139 11.3798 29.2857 13.8813 29.3282 16.5046C29.3707 19.128 28.3806 21.6629 26.5712 23.5629C24.7619 25.4629 22.2784 26.5757 19.6561 26.6613L19.3321 26.6667H12.6654C10.0418 26.666 7.52346 25.6343 5.65351 23.7939C3.78357 21.9535 2.71179 19.452 2.66928 16.8287C2.62677 14.2054 3.61694 11.6704 5.42627 9.77045C7.23561 7.87047 9.71916 6.75767 12.3414 6.672L12.6654 6.66667H14.6654V5.33333C14.6654 4.97971 14.8059 4.64057 15.056 4.39052C15.306 4.14048 15.6451 4 15.9988 4ZM20.6654 13.3333C20.3118 13.3333 19.9727 13.4738 19.7226 13.7239C19.4726 13.9739 19.3321 14.313 19.3321 14.6667V15.3333H18.6654C18.3118 15.3333 17.9727 15.4738 17.7226 15.7239C17.4726 15.9739 17.3321 16.313 17.3321 16.6667C17.3321 17.0203 17.4726 17.3594 17.7226 17.6095C17.9727 17.8595 18.3118 18 18.6654 18H19.3321V18.6667C19.3321 19.0203 19.4726 19.3594 19.7226 19.6095C19.9727 19.8595 20.3118 20 20.6654 20C21.019 20 21.3582 19.8595 21.6082 19.6095C21.8583 19.3594 21.9988 19.0203 21.9988 18.6667V18H22.6654C23.019 18 23.3582 17.8595 23.6082 17.6095C23.8583 17.3594 23.9988 17.0203 23.9988 16.6667C23.9988 16.313 23.8583 15.9739 23.6082 15.7239C23.3582 15.4738 23.019 15.3333 22.6654 15.3333H21.9988V14.6667C21.9988 14.313 21.8583 13.9739 21.6082 13.7239C21.3582 13.4738 21.019 13.3333 20.6654 13.3333ZM11.3321 13.3333C10.448 13.3333 9.60019 13.6845 8.97507 14.3096C8.34995 14.9348 7.99876 15.7826 7.99876 16.6667C7.99876 17.5507 8.34995 18.3986 8.97507 19.0237C9.60019 19.6488 10.448 20 11.3321 20C12.2161 20 13.064 19.6488 13.6891 19.0237C14.3142 18.3986 14.6654 17.5507 14.6654 16.6667C14.6654 15.7826 14.3142 14.9348 13.6891 14.3096C13.064 13.6845 12.2161 13.3333 11.3321 13.3333ZM11.3321 16C11.5089 16 11.6785 16.0702 11.8035 16.1953C11.9285 16.3203 11.9988 16.4899 11.9988 16.6667C11.9988 16.8435 11.9285 17.013 11.8035 17.1381C11.6785 17.2631 11.5089 17.3333 11.3321 17.3333C11.1553 17.3333 10.9857 17.2631 10.8607 17.1381C10.7357 17.013 10.6654 16.8435 10.6654 16.6667C10.6654 16.4899 10.7357 16.3203 10.8607 16.1953C10.9857 16.0702 11.1553 16 11.3321 16Z" fill="#97EB0D"/>
</svg>
