<svg width="32" height="32" viewBox="0 0 32 32" fill="none" xmlns="http://www.w3.org/2000/svg">
<path d="M15.9997 4C16.3263 4.00004 16.6415 4.11994 16.8856 4.33695C17.1296 4.55397 17.2855 4.853 17.3237 5.17733L17.3331 5.33333V6.66667H19.3331C21.9567 6.66733 24.475 7.69908 26.345 9.53944C28.2149 11.3798 29.2867 13.8813 29.3292 16.5046C29.3717 19.128 28.3816 21.6629 26.5722 23.5629C24.7629 25.4629 22.2793 26.5757 19.6571 26.6613L19.3331 26.6667H12.6664C10.0427 26.666 7.52443 25.6343 5.65449 23.7939C3.78454 21.9535 2.71277 19.452 2.67026 16.8287C2.62775 14.2054 3.61791 11.6704 5.42725 9.77045C7.23658 7.87047 9.72014 6.75767 12.3424 6.672L12.6664 6.66667H14.6664V5.33333C14.6664 4.97971 14.8069 4.64057 15.0569 4.39052C15.307 4.14048 15.6461 4 15.9997 4ZM20.6664 13.3333C20.3128 13.3333 19.9736 13.4738 19.7236 13.7239C19.4735 13.9739 19.3331 14.313 19.3331 14.6667V15.3333H18.6664C18.3128 15.3333 17.9736 15.4738 17.7236 15.7239C17.4735 15.9739 17.3331 16.313 17.3331 16.6667C17.3331 17.0203 17.4735 17.3594 17.7236 17.6095C17.9736 17.8595 18.3128 18 18.6664 18H19.3331V18.6667C19.3331 19.0203 19.4735 19.3594 19.7236 19.6095C19.9736 19.8595 20.3128 20 20.6664 20C21.02 20 21.3592 19.8595 21.6092 19.6095C21.8593 19.3594 21.9997 19.0203 21.9997 18.6667V18H22.6664C23.02 18 23.3592 17.8595 23.6092 17.6095C23.8593 17.3594 23.9997 17.0203 23.9997 16.6667C23.9997 16.313 23.8593 15.9739 23.6092 15.7239C23.3592 15.4738 23.02 15.3333 22.6664 15.3333H21.9997V14.6667C21.9997 14.313 21.8593 13.9739 21.6092 13.7239C21.3592 13.4738 21.02 13.3333 20.6664 13.3333ZM11.3331 13.3333C10.449 13.3333 9.60117 13.6845 8.97605 14.3096C8.35092 14.9348 7.99973 15.7826 7.99973 16.6667C7.99973 17.5507 8.35092 18.3986 8.97605 19.0237C9.60117 19.6488 10.449 20 11.3331 20C12.2171 20 13.065 19.6488 13.6901 19.0237C14.3152 18.3986 14.6664 17.5507 14.6664 16.6667C14.6664 15.7826 14.3152 14.9348 13.6901 14.3096C13.065 13.6845 12.2171 13.3333 11.3331 13.3333ZM11.3331 16C11.5099 16 11.6794 16.0702 11.8045 16.1953C11.9295 16.3203 11.9997 16.4899 11.9997 16.6667C11.9997 16.8435 11.9295 17.013 11.8045 17.1381C11.6794 17.2631 11.5099 17.3333 11.3331 17.3333C11.1563 17.3333 10.9867 17.2631 10.8617 17.1381C10.7366 17.013 10.6664 16.8435 10.6664 16.6667C10.6664 16.4899 10.7366 16.3203 10.8617 16.1953C10.9867 16.0702 11.1563 16 11.3331 16Z" fill="#A1A1A1"/>
</svg>
