<svg width="88" height="88" viewBox="0 0 88 88" fill="none" xmlns="http://www.w3.org/2000/svg">
<g clip-path="url(#clip0_2340_12640)">
<path fill-rule="evenodd" clip-rule="evenodd" d="M28.8487 77.7783C20.5187 69.4482 20.5474 55.9132 28.911 47.5496C30.4351 46.0254 34.2599 42.9005 37.3537 42.6153L37.3633 38.3976C37.3681 35.9149 36.6683 35.8861 35.5156 35.8406C35.0339 35.819 34.4755 35.7974 33.8525 35.5913C33.8525 35.5913 29.6371 34.8988 28.9422 30.681C28.5971 28.2223 29.594 23.3 36.3376 23.2856L36.3424 21.8813C36.3424 21.8813 31.7748 21.5362 31.0774 17.3209C30.7323 14.8621 32.1486 10.642 37.0685 10.63L37.0781 5.71252C37.0853 2.33594 40.1335 1.25274 41.6553 1.13532L45.8754 1.12334C49.8128 1.11615 50.7905 4.39448 50.7881 6.03604L50.7114 42.5865C50.7114 42.5865 55.2766 43.629 59.1349 47.4873C67.4649 55.8173 67.4362 69.3524 59.0726 77.716C50.709 86.0795 37.1763 86.1059 28.8487 77.7783ZM38.7292 57.3726C37.3288 58.7679 36.5399 60.6622 36.5358 62.6391C36.5318 64.6159 37.313 66.5135 38.7077 67.9145C39.4013 68.6056 40.2242 69.1533 41.1295 69.5264C42.0348 69.8994 43.0047 70.0905 43.9838 70.0887C44.9629 70.087 45.9321 69.8923 46.836 69.516C47.74 69.1397 48.5609 68.589 49.252 67.8954C49.9456 67.2043 50.4963 66.3833 50.8727 65.4794C51.249 64.5755 51.4436 63.6063 51.4454 62.6272C51.4472 61.648 51.2561 60.6781 50.883 59.7728C50.51 58.8676 49.9623 58.0446 49.2712 57.351C47.8701 55.9563 45.9726 55.1751 43.9957 55.1792C42.0189 55.1832 40.1245 55.9722 38.7292 57.3726Z" fill="#3D3D3D"/>
</g>
<defs>
<clipPath id="clip0_2340_12640">
<rect width="88" height="88" fill="white"/>
</clipPath>
</defs>
</svg>
