<svg width="36" height="30" viewBox="0 0 36 30" fill="none" xmlns="http://www.w3.org/2000/svg">
<path fill-rule="evenodd" clip-rule="evenodd" d="M25.2916 4.28719C23.978 4.28719 23.4883 5.20893 23.4883 6.08781C23.4883 6.96668 24.0003 7.95273 25.2916 7.95273H27.6959V10.2035C27.6959 11.5968 28.6532 12.2399 29.7441 12.2399C30.835 12.2399 31.7923 11.5968 31.7923 10.2035V7.95273H34.1967C35.488 7.95273 36 6.96668 36 6.08781C36 5.20893 35.5102 4.28719 34.1967 4.28719H31.7923V2.03641C31.7923 0.643078 30.835 0 29.7441 0C28.6532 0 27.6959 0.643078 27.6959 2.03641V4.28719H25.2916ZM24.1298 13.283L16.4083 18.3126V12.4099L7.72153 18.5823V8.31191C7.72153 8.06183 7.61984 7.822 7.43883 7.64516C7.25783 7.46833 7.01233 7.36899 6.75634 7.36899H3.86077C3.60478 7.36899 3.35928 7.46833 3.17827 7.64516C2.99726 7.822 2.89557 8.06183 2.89557 8.31191V26.2275C2.89557 26.4776 2.99726 26.7175 3.17827 26.8943C3.35928 27.0711 3.60478 27.1705 3.86077 27.1705H23.1646C23.4206 27.1705 23.6661 27.0711 23.8471 26.8943C24.0281 26.7175 24.1298 26.4776 24.1298 26.2275V13.283ZM10.6171 13.0266V8.31191C10.6171 7.31159 10.2103 6.35225 9.48631 5.64491C8.76228 4.93758 7.78028 4.5402 6.75634 4.5402H3.86077C2.83683 4.5402 1.85483 4.93758 1.13079 5.64491C0.406758 6.35225 0 7.31159 0 8.31191V26.2275C0 27.2279 0.406758 28.1872 1.13079 28.8945C1.85483 29.6019 2.83683 29.9992 3.86077 29.9992H23.1646C24.1885 29.9992 25.1705 29.6019 25.8946 28.8945C26.6186 28.1872 27.0254 27.2279 27.0254 26.2275V12.7305C27.0252 12.2721 26.8977 11.8224 26.6565 11.4292C26.4153 11.0361 26.0695 10.7142 25.6558 10.498C25.2421 10.2818 24.776 10.1793 24.3074 10.2015C23.8388 10.2237 23.3851 10.3697 22.9947 10.624L22.1666 11.1614L19.3038 13.0266V11.7442C19.3038 11.2849 19.1737 10.8345 18.9279 10.443C18.6822 10.0515 18.3303 9.73398 17.9113 9.52569C17.4923 9.3174 17.0224 9.22643 16.5538 9.26283C16.0851 9.29924 15.6359 9.4616 15.2558 9.73196L10.6171 13.0266ZM6.2152 21.9272C6.48671 21.6619 6.85496 21.5129 7.23894 21.5129H19.7864C20.1704 21.5129 20.5387 21.6619 20.8102 21.9272C21.0817 22.1924 21.2342 22.5522 21.2342 22.9273C21.2342 23.3024 21.0817 23.6622 20.8102 23.9274C20.5387 24.1927 20.1704 24.3417 19.7864 24.3417H7.23894C6.85496 24.3417 6.48671 24.1927 6.2152 23.9274C5.94368 23.6622 5.79115 23.3024 5.79115 22.9273C5.79115 22.5522 5.94368 22.1924 6.2152 21.9272Z" fill="#8ADF00"/>
</svg>
