<svg width="40" height="40" viewBox="0 0 40 40" fill="none" xmlns="http://www.w3.org/2000/svg">
<circle cx="20" cy="20" r="20" fill="#97EB0D"/>
<mask id="mask0_1652_5074" style="mask-type:alpha" maskUnits="userSpaceOnUse" x="0" y="0" width="40" height="40">
<circle cx="20" cy="20" r="20" fill="#D6D6D6"/>
</mask>
<g mask="url(#mask0_1652_5074)">
<path fill-rule="evenodd" clip-rule="evenodd" d="M13.6947 21.6926V14.2105C13.6947 13.4801 14.0929 12.8077 14.7335 12.4567L22.4106 8.24899C23.7435 7.51848 25.3719 8.48294 25.3719 10.0028V21.6926C25.3719 21.7685 25.3677 21.8434 25.3594 21.9171C27.3834 22.1153 28.9649 23.8219 28.9649 25.8979V38.5575C28.9649 40.7666 27.174 42.5574 24.9649 42.5574H15C12.7909 42.5574 11 40.7666 11 38.5575V25.8979C11 24.1302 12.1466 22.6304 13.7366 22.1015C13.7091 21.9695 13.6947 21.8327 13.6947 21.6926ZM15 23.8979H24.9649C26.0694 23.8979 26.9649 24.7933 26.9649 25.8979V38.5575C26.9649 39.662 26.0694 40.5574 24.9649 40.5574H15C13.8954 40.5574 13 39.662 13 38.5575V25.8979C13 24.7933 13.8954 23.8979 15 23.8979Z" fill="white"/>
</g>
</svg>
