<svg width="32" height="32" viewBox="0 0 32 32" fill="none" xmlns="http://www.w3.org/2000/svg">
<path fill-rule="evenodd" clip-rule="evenodd" d="M8 5H24C25.6569 5 27 6.34315 27 8V24C27 25.6569 25.6569 27 24 27H8C6.34315 27 5 25.6569 5 24V8C5 6.34315 6.34315 5 8 5ZM4 8C4 5.79086 5.79086 4 8 4H24C26.2091 4 28 5.79086 28 8V24C28 26.2091 26.2091 28 24 28H8C5.79086 28 4 26.2091 4 24V8ZM14 10C11.7909 10 10 11.7909 10 14V18C10 20.2091 11.7909 22 14 22H18C20.2091 22 22 20.2091 22 18V14C22 11.7909 20.2091 10 18 10H14Z" fill="#97EB0D"/>
</svg>
