<svg width="32" height="32" viewBox="0 0 32 32" fill="none" xmlns="http://www.w3.org/2000/svg">
<path d="M15.6667 15.6667C14.2 15.6667 12.9444 15.1444 11.9 14.1C10.8556 13.0556 10.3333 11.8 10.3333 10.3333C10.3333 8.86667 10.8556 7.61111 11.9 6.56667C12.9444 5.52222 14.2 5 15.6667 5C17.1333 5 18.3889 5.52222 19.4333 6.56667C20.4778 7.61111 21 8.86667 21 10.3333C21 11.8 20.4778 13.0556 19.4333 14.1C18.3889 15.1444 17.1333 15.6667 15.6667 15.6667ZM5 23.6667V22.6C5 21.8444 5.19467 21.1502 5.584 20.5173C5.97333 19.8844 6.48978 19.4009 7.13333 19.0667C8.51111 18.3778 9.91111 17.8613 11.3333 17.5173C12.7556 17.1733 14.2 17.0009 15.6667 17C17.1333 16.9991 18.5778 17.1716 20 17.5173C21.4222 17.8631 22.8222 18.3796 24.2 19.0667C24.8444 19.4 25.3613 19.8836 25.7507 20.5173C26.14 21.1511 26.3342 21.8453 26.3333 22.6V23.6667C26.3333 24.4 26.0724 25.028 25.5507 25.5507C25.0289 26.0733 24.4009 26.3342 23.6667 26.3333H7.66667C6.93333 26.3333 6.30578 26.0724 5.784 25.5507C5.26222 25.0289 5.00089 24.4009 5 23.6667Z" fill="#97EB0D"/>
</svg>
