<svg width="154" height="18" viewBox="0 0 154 18" fill="none" xmlns="http://www.w3.org/2000/svg">
<path d="M150.603 4.71955C150.483 4.71955 150.158 4.73762 149.628 4.77377C149.109 4.80992 148.796 4.82799 148.688 4.82799C148.326 4.84004 148.073 4.78582 147.929 4.66533C147.784 4.5328 147.7 4.29182 147.676 3.94241C147.64 3.31588 147.688 2.63513 147.82 1.90017C147.832 1.79173 147.905 1.67727 148.037 1.55678C148.182 1.42424 148.308 1.35798 148.417 1.35798C149.682 1.28568 150.863 1.27966 151.959 1.3399C152.224 1.35195 152.628 1.49654 153.17 1.77365C153.29 1.8339 153.381 2.01463 153.441 2.31584C153.453 2.33994 153.459 2.55682 153.459 2.96647C153.604 4.087 153.537 5.37018 153.26 6.81602C153.224 6.99675 153.158 7.1353 153.061 7.23169C152.965 7.31603 152.826 7.37025 152.646 7.39435C151.947 7.52689 151.495 7.50279 151.29 7.32206C151.097 7.14133 151.025 6.70758 151.073 6.0208C151.085 5.93646 151.091 5.8461 151.091 5.74971C151.091 5.06294 150.929 4.71955 150.603 4.71955Z" fill="#7C7C7C"/>
<path d="M144.717 5.80494V7.59417C144.717 7.78695 144.693 8.14238 144.645 8.66048C144.609 8.94964 144.44 9.10025 144.139 9.1123C143.5 9.12435 142.946 9.11832 142.476 9.09423C142.211 9.08218 141.982 8.98579 141.789 8.80506C141.608 8.62433 141.512 8.40745 141.5 8.15443C141.476 5.96158 141.506 3.87716 141.59 1.90118C141.59 1.72045 141.626 1.56984 141.699 1.44936C141.771 1.31682 141.843 1.23248 141.916 1.19634C141.988 1.14814 142.114 1.07585 142.295 0.97946C142.331 0.967411 142.398 0.937289 142.494 0.889094C142.59 0.828851 142.651 0.792706 142.675 0.780657C142.699 0.768608 142.759 0.738487 142.855 0.690291C142.964 0.642097 143.036 0.618 143.072 0.618C143.108 0.618 143.181 0.599927 143.289 0.563781C143.398 0.527635 143.476 0.521611 143.524 0.545708C143.572 0.557757 143.663 0.557757 143.795 0.545708C144.084 0.557757 144.301 0.611976 144.446 0.708364C144.59 0.792705 144.663 0.949338 144.663 1.17826C144.663 1.68431 144.705 2.32288 144.789 3.094C144.813 3.23858 144.928 3.32292 145.133 3.34702C146 3.40726 146.488 3.44943 146.597 3.47353C146.825 3.52172 146.97 3.69041 147.03 3.97957C147.091 4.25669 147.085 4.53984 147.012 4.829C146.952 5.11817 146.868 5.35914 146.759 5.55192C146.687 5.67241 146.482 5.75675 146.145 5.80494H144.717ZM135.229 3.61811C134.578 3.47353 133.765 3.4916 132.789 3.67233C131.813 3.85306 131.138 3.9374 130.765 3.92536C130.897 2.84098 130.994 2.06384 131.054 1.59394C132.018 1.46141 132.53 1.39514 132.59 1.39514C134.217 1.29875 135.277 1.2626 135.771 1.2867C136.096 1.29875 136.584 1.38309 137.235 1.53972C137.885 1.68431 138.235 1.76262 138.283 1.77467C138.729 1.88311 138.879 2.18432 138.735 2.67832C138.711 2.77471 138.669 2.91327 138.608 3.094C138.56 3.27473 138.524 3.38919 138.5 3.43738C138.488 3.48558 138.464 3.56992 138.428 3.69041C138.391 3.79884 138.355 3.88921 138.319 3.9615C138.295 4.02174 138.253 4.10608 138.193 4.21452C138.144 4.31091 138.084 4.4314 138.012 4.57598C137.795 4.98564 137.488 5.37119 137.09 5.73265C136.897 5.91338 136.771 6.04592 136.711 6.13026C136.626 6.28689 136.735 6.46762 137.036 6.67245C137.048 6.69655 137.06 6.70859 137.072 6.70859C137.289 6.85318 137.542 7.09415 137.831 7.43151C138.12 7.76888 138.301 7.9737 138.373 8.04599C138.53 8.19058 138.65 8.31709 138.735 8.42553C138.819 8.52192 138.922 8.6665 139.042 8.85928C139.163 9.04001 139.199 9.20869 139.15 9.36532C139.114 9.50991 138.994 9.63642 138.789 9.74485C138.717 9.79305 138.524 9.92558 138.211 10.1425C137.897 10.3473 137.717 10.4617 137.669 10.4858C137.572 10.5581 137.464 10.5943 137.343 10.5943C137.235 10.5943 137.144 10.5762 137.072 10.5401C137 10.5039 136.903 10.4497 136.783 10.3774C136.662 10.3051 136.584 10.2569 136.548 10.2328C136.488 10.1967 136.44 10.1666 136.403 10.1425C136.379 10.1184 136.349 10.0822 136.313 10.034C136.289 9.98583 136.265 9.94366 136.241 9.90751C136.193 9.83522 136.102 9.73883 135.97 9.61834C135.849 9.49786 135.747 9.37737 135.662 9.25688C135.168 8.59421 134.638 8.26889 134.072 8.28094C133.349 8.28094 132.433 8.80506 131.325 9.85329C130.975 10.1666 130.747 10.1003 130.638 9.65449C130.409 8.71469 130.277 8.13033 130.241 7.90141C130.168 7.45561 130.228 7.08813 130.421 6.79896C130.626 6.50979 130.921 6.30496 131.307 6.18448C131.933 6.00375 132.506 5.73868 133.024 5.38927C133.542 5.02781 134.138 4.55188 134.813 3.9615C134.825 3.9615 134.964 3.84704 135.229 3.61811ZM140.325 15.2933C140.638 15.2933 140.898 15.1667 141.102 14.9137C141.307 14.6728 141.41 14.3836 141.41 14.0462C141.41 13.5402 141.132 13.2269 140.578 13.1064C139.988 12.9859 138.813 12.9257 137.054 12.9257H137.036C136.867 12.9257 136.723 12.9558 136.602 13.0161C136.482 13.0643 136.379 13.1546 136.295 13.2872C136.223 13.4076 136.168 13.5161 136.132 13.6125C136.096 13.7089 136.054 13.8534 136.006 14.0462C135.982 14.1306 135.97 14.2089 135.97 14.2812C135.97 14.4378 136.006 14.5703 136.078 14.6788C136.162 14.7872 136.289 14.8655 136.458 14.9137C136.626 14.974 136.771 15.0101 136.891 15.0222C137.012 15.0463 137.187 15.0704 137.415 15.0945C137.464 15.1065 137.5 15.1125 137.524 15.1125C137.801 15.1366 138.259 15.1667 138.897 15.2029C139.536 15.239 139.994 15.2692 140.271 15.2933H140.325ZM140 17.5343C139.916 17.5343 139.458 17.5524 138.626 17.5885C137.807 17.6367 137.355 17.6608 137.271 17.6608C136.934 17.6608 136.632 17.6367 136.367 17.5885C136.307 17.5885 136.223 17.5765 136.114 17.5524C136.018 17.5403 135.867 17.5162 135.662 17.4801C135.458 17.4439 135.325 17.4198 135.265 17.4078C135.217 17.4078 135.12 17.3897 134.976 17.3536C134.843 17.3295 134.741 17.2994 134.668 17.2632C134.596 17.2391 134.5 17.203 134.379 17.1548C134.259 17.1186 134.126 17.0704 133.982 17.0102C133.584 16.8295 133.204 16.5463 132.843 16.1608C132.482 15.7752 132.301 15.4017 132.301 15.0402C132.301 14.1968 132.421 13.5703 132.662 13.1606C133.337 12.0281 134.723 11.3533 136.819 11.1365C137.096 11.1003 137.379 11.0823 137.669 11.0823C138.379 11.0823 139.217 11.1485 140.181 11.2811C141.157 11.4015 141.934 11.5401 142.512 11.6967C143.187 11.8895 143.669 12.1666 143.958 12.5281C144.259 12.8896 144.41 13.3896 144.41 14.0281C144.41 14.8354 144.09 15.48 143.452 15.962C143.404 15.9981 143.307 16.0704 143.163 16.1788C143.03 16.2873 142.94 16.3535 142.892 16.3776C142.855 16.4138 142.783 16.468 142.675 16.5403C142.566 16.6246 142.482 16.6789 142.422 16.703C142.374 16.7391 142.295 16.7873 142.187 16.8475C142.09 16.9078 142 16.956 141.916 16.9921C141.843 17.0283 141.753 17.0704 141.645 17.1186C141.536 17.1668 141.422 17.215 141.301 17.2632C140.867 17.4319 140.434 17.5223 140 17.5343Z" fill="#7C7C7C"/>
<path d="M112.261 8.48013C112.358 8.48013 113.255 8.48615 114.954 8.4982C116.653 8.51025 117.551 8.51627 117.647 8.51627C117.792 8.51627 118.274 8.45603 119.093 8.33555C119.057 7.84155 119.075 7.47407 119.147 7.23309C119.232 6.99212 119.448 6.82946 119.798 6.74512C120.352 6.62464 120.671 6.56439 120.756 6.56439C120.985 6.52825 121.195 6.52222 121.388 6.54632C121.581 6.57042 121.708 6.64873 121.768 6.78127C121.9 6.99814 121.967 7.31141 121.967 7.72106C121.967 8.19096 121.985 8.42591 122.021 8.42591C122.141 8.42591 122.852 8.45001 124.153 8.4982C125.467 8.53435 126.184 8.55242 126.304 8.55242L127.84 8.40784C127.973 8.45603 128.093 8.55242 128.202 8.697C128.322 8.84159 128.37 8.9922 128.346 9.14883C128.334 9.22112 128.256 9.69704 128.111 10.5766C127.943 10.5886 127.852 10.5947 127.84 10.5947C127.78 10.5947 125.665 10.5706 121.497 10.5224C121.448 10.5224 120.84 10.5404 119.671 10.5766C118.515 10.6007 117.918 10.6127 117.882 10.6127C117.75 10.6127 117.027 10.6067 115.713 10.5947C114.4 10.5706 113.659 10.5525 113.49 10.5404C113.466 10.5404 113.292 10.5525 112.966 10.5766C112.641 10.6007 112.466 10.6127 112.442 10.6127C112.237 10.6127 112.105 10.5766 112.044 10.5043C111.984 10.432 111.954 10.2814 111.954 10.0525C111.942 9.91994 111.936 9.81753 111.936 9.74524C111.912 9.52836 111.912 9.2151 111.936 8.80544C111.948 8.58857 112.057 8.48013 112.261 8.48013ZM114.286 3.58235L114.141 1.68469C114.249 1.67264 114.436 1.63649 114.701 1.57625C114.978 1.51601 115.183 1.47986 115.316 1.46781C117.424 1.39552 119.057 1.35938 120.213 1.35938C121.527 1.35938 122.93 1.40155 124.424 1.48589H124.732C124.973 1.48589 125.262 1.52203 125.599 1.59432C125.792 1.63047 125.925 1.69674 125.997 1.79313C126.081 1.88952 126.159 2.04012 126.232 2.24495C126.28 2.43773 126.31 2.58834 126.322 2.69678L126.358 3.09438C126.406 3.11848 126.419 3.62452 126.394 4.61251C126.382 5.6005 126.376 6.10654 126.376 6.13064C126.388 6.4921 126.316 6.75717 126.159 6.92585C126.003 7.09453 125.75 7.1849 125.4 7.19695C125.34 7.19695 125.184 7.19092 124.931 7.17887C124.69 7.15478 124.539 7.14273 124.479 7.14273C123.961 7.15478 123.69 6.48005 123.665 5.11855C123.665 4.69685 123.611 4.43781 123.503 4.34142C123.394 4.23298 123.129 4.16671 122.708 4.14261C122.647 4.14261 122.599 4.13659 122.563 4.12454C121.515 4.0643 120.87 4.03418 120.629 4.03418C118.834 3.99803 117.123 3.99201 115.496 4.0161H114.99C114.942 4.0161 114.882 4.01008 114.81 3.99803C114.737 3.98598 114.665 3.97393 114.593 3.96188C114.52 3.93779 114.472 3.92574 114.448 3.92574C114.412 3.91369 114.376 3.8655 114.34 3.78115C114.304 3.68477 114.286 3.6185 114.286 3.58235ZM122.256 15.2936C122.569 15.2936 122.828 15.1671 123.033 14.9141C123.238 14.6731 123.34 14.384 123.34 14.0466C123.34 13.5406 123.063 13.2273 122.509 13.1068C121.918 12.9863 120.744 12.9261 118.985 12.9261H118.966C118.798 12.9261 118.653 12.9562 118.533 13.0164C118.412 13.0646 118.31 13.155 118.225 13.2875C118.153 13.408 118.099 13.5165 118.063 13.6129C118.027 13.7092 117.984 13.8538 117.936 14.0466C117.912 14.1309 117.9 14.2093 117.9 14.2816C117.9 14.4382 117.936 14.5707 118.009 14.6792C118.093 14.7876 118.219 14.8659 118.388 14.9141C118.557 14.9744 118.701 15.0105 118.822 15.0225C118.942 15.0466 119.117 15.0707 119.346 15.0948C119.394 15.1069 119.43 15.1129 119.454 15.1129C119.732 15.137 120.189 15.1671 120.828 15.2033C121.467 15.2394 121.924 15.2695 122.201 15.2936H122.256ZM121.93 17.5347C121.846 17.5347 121.388 17.5528 120.557 17.5889C119.738 17.6371 119.286 17.6612 119.201 17.6612C118.864 17.6612 118.563 17.6371 118.298 17.5889C118.237 17.5889 118.153 17.5769 118.045 17.5528C117.948 17.5407 117.798 17.5166 117.593 17.4805C117.388 17.4443 117.256 17.4202 117.195 17.4082C117.147 17.4082 117.051 17.3901 116.906 17.354C116.774 17.3299 116.671 17.2997 116.599 17.2636C116.527 17.2395 116.43 17.2034 116.31 17.1552C116.189 17.119 116.057 17.0708 115.912 17.0106C115.515 16.8298 115.135 16.5467 114.774 16.1611C114.412 15.7756 114.231 15.4021 114.231 15.0406C114.231 14.1972 114.352 13.5707 114.593 13.161C115.268 12.0285 116.653 11.3537 118.75 11.1369C119.027 11.1007 119.31 11.0826 119.599 11.0826C120.31 11.0826 121.147 11.1489 122.111 11.2814C123.087 11.4019 123.864 11.5405 124.443 11.6971C125.117 11.8899 125.599 12.167 125.888 12.5285C126.19 12.8899 126.34 13.39 126.34 14.0285C126.34 14.8358 126.021 15.4804 125.382 15.9623C125.334 15.9985 125.238 16.0708 125.093 16.1792C124.961 16.2877 124.87 16.3539 124.822 16.378C124.786 16.4142 124.714 16.4684 124.605 16.5407C124.497 16.625 124.412 16.6792 124.352 16.7033C124.304 16.7395 124.226 16.7877 124.117 16.8479C124.021 16.9082 123.93 16.9564 123.846 16.9925C123.774 17.0286 123.683 17.0708 123.575 17.119C123.467 17.1672 123.352 17.2154 123.232 17.2636C122.798 17.4323 122.364 17.5226 121.93 17.5347Z" fill="#7C7C7C"/>
<path d="M102.565 1.84766C102.565 1.87175 102.601 1.90188 102.673 1.93802C102.757 1.96212 102.842 1.98622 102.926 2.01031C103.022 2.03441 103.077 2.05248 103.089 2.06453C103.161 2.10068 103.203 2.13682 103.215 2.17297C103.312 2.51033 103.348 2.90191 103.324 3.34771C103.095 5.92612 102.896 8.22139 102.727 10.2335C102.583 11.8239 102.498 12.8963 102.474 13.4505C102.426 14.2096 102.372 14.8421 102.311 15.3482C102.275 15.5891 102.107 15.9566 101.805 16.4506C101.733 16.5711 101.571 16.6314 101.317 16.6314C101.269 16.6434 100.739 16.6494 99.7271 16.6494C99.5463 16.6494 99.4017 16.5952 99.2933 16.4868C99.1849 16.3904 99.1246 16.2578 99.1126 16.0892L98.9861 14.1915C98.9861 14.1795 98.974 14.0469 98.9499 13.7939C98.9379 13.5288 98.9318 13.3722 98.9318 13.324C98.968 12.7939 99.0403 12.2697 99.1487 11.7516C99.209 11.4022 99.1849 11.1733 99.0764 11.0649C98.98 10.9564 98.7632 10.9384 98.4258 11.0107C97.9318 11.107 97.5161 10.9926 97.1788 10.6673C96.8414 10.342 96.7149 9.9323 96.7992 9.43831C96.8836 8.96841 97.0764 8.5949 97.3776 8.31778C97.6908 8.02861 98.1005 7.86596 98.6065 7.82981C98.8355 7.81776 99.0463 7.73342 99.2391 7.57679C99.4319 7.40811 99.5343 7.21533 99.5463 6.99845C99.5584 6.84182 99.6005 6.28156 99.6728 5.31767C99.7451 4.34173 99.7873 3.73327 99.7993 3.4923C99.8234 3.29952 99.8837 2.98625 99.9801 2.5525C100.076 2.1549 100.329 1.96212 100.739 1.97417C101.221 1.98622 101.667 1.99224 102.077 1.99224C102.089 1.99224 102.251 1.94404 102.565 1.84766ZM91.5942 16.306C90.0279 16.2819 88.7206 15.7337 87.6724 14.6614C87.3109 14.2999 87.07 13.6855 86.9495 12.818C86.7687 11.6131 86.6844 10.5528 86.6964 9.63711C86.6964 8.03464 87.0398 6.49844 87.7266 5.0285C87.7868 4.89596 87.8411 4.8056 87.8893 4.7574C88.8411 3.80556 89.4375 3.22723 89.6785 3.0224C89.8231 2.87782 90.0942 2.80552 90.4918 2.80552C91.3111 2.62479 92.0882 2.67901 92.8232 2.96818C93.3172 3.17301 93.8533 3.48025 94.4317 3.8899C95.01 4.28751 95.4679 4.69114 95.8052 5.10079C95.986 5.34176 96.1064 5.61888 96.1667 5.93215C96.3233 6.70326 96.3715 7.34787 96.3113 7.86596C96.2028 9.08287 96.0161 10.4263 95.751 11.8962C95.4498 13.6071 94.6486 14.8662 93.3473 15.6735C92.5521 16.1675 91.9677 16.3783 91.5942 16.306ZM93.5642 8.76961C93.5401 8.69731 93.51 8.5708 93.4738 8.39007C93.4497 8.20934 93.4196 8.05874 93.3834 7.93825C93.3473 7.80571 93.3051 7.69728 93.2569 7.61294C93.0762 7.33582 92.8352 7.12497 92.534 6.98038C92.2448 6.82375 91.9497 6.77555 91.6484 6.8358C91.1303 6.93219 90.7629 7.2816 90.546 7.88403C90.4616 8.10091 90.3954 8.29971 90.3472 8.48044C90.299 8.66117 90.2749 8.85395 90.2749 9.05877C90.2749 9.2636 90.2809 9.42626 90.293 9.54674C90.305 9.65518 90.3291 9.84796 90.3653 10.1251C90.4014 10.4022 90.4315 10.607 90.4556 10.7396C90.4556 10.8119 90.4616 10.9323 90.4737 11.101C90.4978 11.2697 90.5098 11.3781 90.5098 11.4263C90.5219 11.4745 90.54 11.5589 90.5641 11.6794C90.5882 11.7878 90.6123 11.8661 90.6364 11.9143C90.6604 11.9625 90.6906 12.0288 90.7267 12.1131C90.7749 12.1854 90.8291 12.2517 90.8894 12.3119C90.9496 12.3722 91.0219 12.4264 91.1062 12.4746C91.3834 12.6794 91.6605 12.7818 91.9376 12.7818C92.1665 12.7818 92.3774 12.6975 92.5702 12.5288C92.7629 12.3601 92.8834 12.1673 92.9316 11.9504C92.9798 11.7456 93.1907 10.6853 93.5642 8.76961Z" fill="#7C7C7C"/>
<path d="M72.293 7.59417C72.293 7.63032 72.3171 7.66646 72.3653 7.70261C72.4255 7.7267 72.4737 7.73875 72.5098 7.73875C73.4978 7.76285 74.1244 7.76888 74.3894 7.75683C74.6665 7.73273 75.1545 7.65441 75.8533 7.52188C75.9377 7.50983 76.0582 7.48573 76.2148 7.44959C76.3835 7.41344 76.4799 7.40139 76.504 7.41344C76.5281 7.41344 76.6365 7.41344 76.8293 7.41344C76.8534 7.41344 76.9076 7.41344 76.9919 7.41344C77.0763 7.40139 77.1546 7.39537 77.2269 7.39537C77.3112 7.39537 77.3895 7.39537 77.4618 7.39537C77.5462 7.39537 77.6124 7.40742 77.6606 7.43151C77.7088 7.44356 77.739 7.46766 77.751 7.5038C77.8353 7.69658 77.8594 7.86526 77.8233 8.00985C77.7992 8.15443 77.745 8.34721 77.6606 8.58818C77.5883 8.81711 77.5522 8.99181 77.5522 9.1123C77.5522 9.1364 77.51 9.22676 77.4257 9.38339C77.4016 9.44364 77.3715 9.51593 77.3353 9.60027C77.0221 10.2388 76.4015 10.6304 75.4738 10.775C75.4136 10.7871 74.9256 10.8353 74.0099 10.9196V10.9015C72.4074 10.9015 71.552 10.8955 71.4435 10.8835C70.8531 10.8835 70.4375 10.763 70.1965 10.522C70.1363 10.4617 70.076 10.3834 70.0158 10.287C69.9555 10.1907 69.9073 10.1063 69.8712 10.034C69.8471 9.94968 69.8109 9.82919 69.7627 9.67256C69.7146 9.51593 69.6784 9.40147 69.6543 9.32918C69.6423 9.24484 69.6121 9.10025 69.5639 8.89542C69.5157 8.6906 69.4856 8.55806 69.4736 8.49782C69.2928 7.7508 69.2145 7.19656 69.2386 6.8351C69.3109 5.35312 69.6242 4.06391 70.1784 2.96749C70.3592 2.60603 70.576 2.35301 70.8291 2.20842C71.0941 2.06384 71.4797 1.96745 71.9857 1.91925C72.0219 1.91925 72.2689 1.90118 72.7267 1.86504C73.1966 1.81684 73.4316 1.78672 73.4316 1.77467C74.3714 1.71443 74.8653 1.69033 74.9135 1.70238C74.9979 1.71443 75.2389 1.72045 75.6365 1.72045C75.8051 1.7325 75.9979 1.77467 76.2148 1.84696C76.4317 1.90721 76.6124 1.96745 76.757 2.02769C76.9016 2.08794 77.0883 2.1783 77.3172 2.29879C77.5462 2.40722 77.6968 2.47349 77.7691 2.49759C77.8052 2.50964 77.8293 2.56386 77.8414 2.66025C77.8655 2.74459 77.8835 2.86507 77.8956 3.02171C77.9197 3.16629 77.9317 3.25063 77.9317 3.27473C77.9558 3.41931 77.9679 3.5157 77.9679 3.5639C77.9679 3.82897 77.9016 4.06391 77.7691 4.26874C77.6365 4.47357 77.4618 4.62418 77.245 4.72057C76.4618 5.04588 75.5642 5.1242 74.5521 4.95551C74.5039 4.95551 74.3232 4.91937 74.0099 4.84708C73.6966 4.76274 73.4557 4.72057 73.287 4.72057C73.1183 4.73261 72.9376 4.78683 72.7448 4.88322C72.5641 4.96756 72.4436 5.06395 72.3833 5.17239C72.3351 5.26878 72.299 5.47963 72.2749 5.80494C72.2628 6.11821 72.2628 6.49172 72.2749 6.92547L72.293 7.59417ZM80.0643 6.41943C80.0643 6.39533 80.0764 5.64229 80.1005 4.1603C80.1366 2.66627 80.1547 1.91323 80.1547 1.90118C80.1547 1.72045 80.1909 1.56984 80.2631 1.44936C80.3354 1.31682 80.4077 1.23248 80.48 1.19634C80.5523 1.14814 80.6788 1.07585 80.8596 0.97946C80.8957 0.967411 80.962 0.937289 81.0584 0.889094C81.1547 0.828851 81.215 0.792706 81.2391 0.780657C81.2632 0.768608 81.3234 0.738487 81.4198 0.690291C81.5283 0.642097 81.6005 0.618 81.6367 0.618C81.6728 0.618 81.7451 0.599927 81.8536 0.563781C81.962 0.527635 82.0403 0.521611 82.0885 0.545708C82.1367 0.557757 82.2271 0.557757 82.3596 0.545708C82.6488 0.557757 82.8657 0.611976 83.0102 0.708364C83.1548 0.792705 83.2271 0.949338 83.2271 1.17826C83.2271 1.29875 83.2452 1.90118 83.2813 2.98556C83.3175 4.06994 83.3416 4.64827 83.3536 4.72057C83.3777 4.86515 83.4922 4.94949 83.697 4.97359C84.5645 5.03383 85.0525 5.076 85.1609 5.1001C85.3898 5.14829 85.5344 5.31697 85.5947 5.60614C85.6549 5.88326 85.6489 6.1664 85.5766 6.45557C85.5164 6.74474 85.432 6.98571 85.3236 7.17849C85.2513 7.29898 85.0465 7.38332 84.7091 7.43151H83.2813V9.76293C83.2813 9.95571 83.2572 10.3111 83.209 10.8292C83.1729 11.1184 83.0042 11.269 82.703 11.2811C82.0644 11.2931 81.5102 11.2871 81.0403 11.263C80.7752 11.2509 80.5463 11.1545 80.3535 10.9738C80.1728 10.7931 80.0764 10.5762 80.0643 10.3232C80.0523 9.27496 80.0523 7.9737 80.0643 6.41943ZM73.1966 11.2991C73.1966 11.3232 73.2147 11.4437 73.2508 11.6606C73.299 11.8775 73.3231 11.998 73.3231 12.022C73.3231 12.1064 73.3532 12.3534 73.4135 12.763C73.4737 13.1606 73.5099 13.4317 73.5219 13.5763C73.546 13.8173 73.5822 14.0282 73.6304 14.2089L75.8533 14.0824C76.3714 14.0462 76.9317 14.0161 77.5341 13.992C78.1486 13.9559 78.5643 13.9318 78.7812 13.9197C78.998 13.9077 79.2511 13.8956 79.5402 13.8836C79.8294 13.8595 80.0884 13.8354 80.3174 13.8113C80.5463 13.7872 80.7873 13.7631 81.0403 13.739C81.3054 13.7149 81.6909 13.6727 82.197 13.6125C82.4982 13.5884 82.7391 13.5763 82.9199 13.5763C83.1126 13.5763 83.2512 13.739 83.3356 14.0643C83.4319 14.3776 83.4801 14.7571 83.4801 15.2029C83.4801 15.6125 83.3717 16.0343 83.1548 16.468C83.0825 16.5885 82.9199 16.6668 82.6668 16.703C82.6066 16.715 81.7512 16.7692 80.1005 16.8656C78.4498 16.974 77.6004 17.0343 77.5522 17.0463C77.492 17.0584 77.4257 17.0644 77.3534 17.0644C75.7509 17.0644 74.3774 17.0945 73.2328 17.1548C73.1725 17.1548 72.9858 17.1608 72.6725 17.1728C72.3592 17.1969 72.1664 17.209 72.0942 17.209C71.4556 17.209 71.0399 17.0524 70.8471 16.7391C70.7869 16.6307 70.7568 16.5282 70.7568 16.4319C70.7327 16.1427 70.6905 15.4017 70.6302 14.2089C70.5821 13.0161 70.5519 12.3353 70.5399 12.1666L70.5218 11.8955C70.5218 11.7269 70.5218 11.5582 70.5218 11.3895L70.5037 11.1365C70.5278 11.1365 70.7327 11.0883 71.1182 10.9919C71.2508 10.9678 71.5399 10.9557 71.9857 10.9557C72.0339 10.9557 72.1002 10.9557 72.1845 10.9557C72.3773 10.9557 72.5159 10.9557 72.6002 10.9557C72.6845 10.9557 72.7809 10.9678 72.8894 10.9919C73.0099 11.016 73.0882 11.0521 73.1243 11.1003C73.1725 11.1485 73.1966 11.2148 73.1966 11.2991Z" fill="#7C7C7C"/>
<path d="M55.3299 14.5345C53.4864 14.7754 52.4984 14.908 52.3659 14.9321C51.643 15.0405 50.2875 15.1249 48.2995 15.1851C46.3235 15.2453 44.962 15.2212 44.215 15.1128C44.1548 15.1008 44.0825 15.0586 43.9981 14.9863C43.9138 14.914 43.8716 14.8477 43.8716 14.7875C43.8114 14.1369 43.7993 13.6188 43.8355 13.2332C43.8837 12.8356 44.0222 12.432 44.2511 12.0223C45.0343 11.8054 45.5765 11.685 45.8777 11.6609C46.2633 11.6368 46.7874 11.6368 47.4501 11.6609C48.1248 11.6729 48.9742 11.703 49.9984 11.7512C51.0345 11.7874 51.7093 11.8054 52.0225 11.8054C52.1551 11.7934 52.4984 11.7874 53.0527 11.7874C53.6069 11.7753 53.9503 11.7633 54.0828 11.7512L55.3841 11.6247C55.4684 9.57645 55.5166 8.44387 55.5287 8.227L55.8178 1.48578C56.0347 1.19661 56.4504 1.00986 57.0649 0.925515C57.6914 0.841175 58.2276 0.871297 58.6734 1.01588L58.9264 1.0701C59.0469 1.19059 59.1373 1.28698 59.1975 1.35927C59.2577 1.41951 59.324 1.54 59.3963 1.72073C59.4806 1.88941 59.5047 2.04604 59.4686 2.19062C59.2999 2.69667 59.1734 4.3895 59.0891 7.26913C59.0047 10.1367 58.9505 11.6609 58.9264 11.8416C58.9264 11.8898 58.9204 12.0524 58.9083 12.3296C58.9083 12.5946 58.9023 12.8537 58.8903 13.1067C58.8903 13.3477 58.8782 13.4923 58.8541 13.5405C58.818 13.685 58.8059 14.1067 58.818 14.8056C58.8421 15.5044 58.83 15.914 58.7818 16.0345C58.6734 16.3598 58.5288 16.5827 58.3481 16.7032C58.1673 16.8358 57.8782 16.902 57.4806 16.902C57.4203 16.902 57.33 16.902 57.2095 16.902C56.9685 16.902 56.7878 16.896 56.6673 16.884C56.5468 16.884 56.3962 16.8659 56.2155 16.8297C56.0347 16.8056 55.9022 16.7635 55.8178 16.7032C55.7335 16.655 55.6612 16.5767 55.601 16.4683C55.5407 16.3719 55.5227 16.2454 55.5468 16.0887C55.5588 16.0285 55.5227 15.7634 55.4383 15.2935C55.366 14.8357 55.3299 14.5827 55.3299 14.5345ZM47.432 1.66651C48.1549 1.75085 48.6971 1.84724 49.0586 1.95568C49.0827 1.96772 49.179 2.00387 49.3477 2.06411C49.5285 2.11231 49.7152 2.17255 49.908 2.24484C50.1008 2.30509 50.2032 2.33521 50.2152 2.33521C50.7936 2.52799 51.3358 2.75089 51.8418 3.00391C52.2033 3.20874 52.4984 3.46778 52.7274 3.78105C52.9563 4.08226 53.1009 4.44975 53.1611 4.8835C53.2334 5.3052 53.1792 5.7751 52.9985 6.29319C52.6972 7.28118 52.3358 8.19688 51.9141 9.04028C51.8056 9.23306 51.649 9.42584 51.4442 9.61862C51.2514 9.79935 51.0526 9.92586 50.8478 9.99815C49.3899 10.5042 48.2874 10.7873 47.5404 10.8476C46.3838 10.944 45.45 10.6608 44.7391 9.99815C44.3174 9.60055 44.0222 8.96197 43.8535 8.08242C43.4439 5.91366 43.968 4.07021 45.4259 2.55208C45.9681 1.9858 46.6368 1.69061 47.432 1.66651ZM48.4983 4.81121C47.9682 4.81121 47.4983 5.02206 47.0886 5.44376C46.6789 5.86546 46.4681 6.34138 46.456 6.87153C46.456 7.17274 46.6428 7.48601 47.0163 7.81132C47.426 8.14868 47.8175 8.29929 48.1911 8.26315C48.5646 8.21495 48.926 8.01012 49.2754 7.64866C49.6248 7.2872 49.7995 6.83538 49.7995 6.29319C49.7995 5.7751 49.6971 5.40159 49.4923 5.17267C49.2995 4.93169 48.9682 4.81121 48.4983 4.81121Z" fill="#7C7C7C"/>
<path d="M26.5266 3.65426C26.5266 3.50968 26.5206 3.21448 26.5085 2.76868C26.5085 2.31084 26.5085 2.01564 26.5085 1.88311C26.617 1.87106 26.9965 1.87708 27.6471 1.90118C28.3098 1.92528 28.6954 1.93733 28.8038 1.93733C28.864 1.92528 29.0327 1.92528 29.3098 1.93733C29.599 1.94938 29.7737 1.94938 29.834 1.93733C31.2316 1.85299 32.4425 1.91925 33.4666 2.13613C34.2618 2.31686 34.6173 2.84098 34.5329 3.70848C34.5209 3.80487 34.4908 4.30489 34.4426 5.20854C34.4064 6.11219 34.3763 6.6845 34.3522 6.92547C34.2799 7.86526 34.0992 8.67252 33.81 9.34725C33.6895 9.64846 33.5208 9.86534 33.304 9.99788C32.7618 10.3352 32.2798 10.5702 31.8581 10.7027C31.7015 10.7268 31.587 10.7389 31.5147 10.7389C31.4786 10.7389 31.3521 10.7328 31.1352 10.7208C30.9304 10.6967 30.8099 10.6846 30.7737 10.6846C29.1472 10.6244 28.2315 10.5883 28.0267 10.5762C27.6772 10.5521 27.3278 10.3654 26.9784 10.0159C26.6411 9.65449 26.4483 9.29303 26.4001 8.93157C26.2917 8.08816 26.2796 7.11825 26.3639 6.02182C26.4724 4.61213 26.5266 3.82294 26.5266 3.65426ZM29.7255 7.5038C29.7737 7.5038 29.9062 7.50983 30.1231 7.52188C30.352 7.52188 30.4906 7.52188 30.5388 7.52188C30.7677 7.52188 30.9726 7.45561 31.1533 7.32307C31.334 7.17849 31.4304 7.00379 31.4425 6.79896C31.4906 5.76277 31.3762 4.91334 31.0991 4.25067L28.9845 4.4314V6.79896C28.9966 7.08813 29.0448 7.27488 29.1291 7.35922C29.2255 7.44356 29.4243 7.49176 29.7255 7.5038ZM36.7017 6.41943C36.7017 6.39533 36.7137 5.64229 36.7378 4.1603C36.774 2.66627 36.7921 1.91323 36.7921 1.90118C36.7921 1.72045 36.8282 1.56984 36.9005 1.44936C36.9728 1.31682 37.0451 1.23248 37.1174 1.19634C37.1897 1.14814 37.3162 1.07585 37.4969 0.97946C37.533 0.967411 37.5993 0.937289 37.6957 0.889094C37.7921 0.828851 37.8523 0.792706 37.8764 0.780657C37.9005 0.768608 37.9608 0.738487 38.0572 0.690291C38.1656 0.642097 38.2379 0.618 38.274 0.618C38.3102 0.618 38.3825 0.599927 38.4909 0.563781C38.5994 0.527635 38.6777 0.521611 38.7259 0.545708C38.7741 0.557757 38.8644 0.557757 38.997 0.545708C39.2861 0.557757 39.503 0.611976 39.6476 0.708364C39.7922 0.792705 39.8645 0.949338 39.8645 1.17826C39.8645 1.29875 39.8825 1.90118 39.9187 2.98556C39.9548 4.06994 39.9789 4.64827 39.991 4.72057C40.0151 4.86515 40.1295 4.94949 40.3344 4.97359C41.2019 5.03383 41.6898 5.076 41.7983 5.1001C42.0272 5.14829 42.1718 5.31697 42.232 5.60614C42.2923 5.88326 42.2862 6.1664 42.2139 6.45557C42.1537 6.74474 42.0694 6.98571 41.9609 7.17849C41.8886 7.29898 41.6838 7.38332 41.3464 7.43151H39.9187V9.76293C39.9187 9.95571 39.8946 10.3111 39.8464 10.8292C39.8102 11.1184 39.6416 11.269 39.3403 11.2811C38.7018 11.2931 38.1475 11.2871 37.6776 11.263C37.4126 11.2509 37.1836 11.1545 36.9909 10.9738C36.8101 10.7931 36.7137 10.5762 36.7017 10.3232C36.6896 9.27496 36.6896 7.9737 36.7017 6.41943ZM29.834 11.2991C29.834 11.3232 29.852 11.4437 29.8882 11.6606C29.9364 11.8775 29.9605 11.998 29.9605 12.022C29.9605 12.1064 29.9906 12.3534 30.0508 12.763C30.1111 13.1606 30.1472 13.4317 30.1593 13.5763C30.1834 13.8173 30.2195 14.0282 30.2677 14.2089L32.4907 14.0824C33.0088 14.0462 33.569 14.0161 34.1715 13.992C34.786 13.9559 35.2016 13.9318 35.4185 13.9197C35.6354 13.9077 35.8884 13.8956 36.1776 13.8836C36.4667 13.8595 36.7258 13.8354 36.9547 13.8113C37.1836 13.7872 37.4246 13.7631 37.6776 13.739C37.9427 13.7149 38.3283 13.6727 38.8343 13.6125C39.1355 13.5884 39.3765 13.5763 39.5572 13.5763C39.75 13.5763 39.8886 13.739 39.9729 14.0643C40.0693 14.3776 40.1175 14.7571 40.1175 15.2029C40.1175 15.6125 40.009 16.0343 39.7922 16.468C39.7199 16.5885 39.5572 16.6668 39.3042 16.703C39.244 16.715 38.3885 16.7692 36.7378 16.8656C35.0872 16.974 34.2377 17.0343 34.1895 17.0463C34.1293 17.0584 34.063 17.0644 33.9907 17.0644C32.3883 17.0644 31.0147 17.0945 29.8701 17.1548C29.8099 17.1548 29.6231 17.1608 29.3098 17.1728C28.9966 17.1969 28.8038 17.209 28.7315 17.209C28.0929 17.209 27.6772 17.0524 27.4845 16.7391C27.4242 16.6307 27.3941 16.5282 27.3941 16.4319C27.37 16.1427 27.3278 15.4017 27.2676 14.2089C27.2194 13.0161 27.1893 12.3353 27.1772 12.1666L27.1592 11.8955C27.1592 11.7269 27.1592 11.5582 27.1592 11.3895L27.1411 11.1365C27.1652 11.1365 27.37 11.0883 27.7556 10.9919C27.8881 10.9678 28.1773 10.9557 28.6231 10.9557C28.6713 10.9557 28.7375 10.9557 28.8219 10.9557C29.0146 10.9557 29.1532 10.9557 29.2375 10.9557C29.3219 10.9557 29.4183 10.9678 29.5267 10.9919C29.6472 11.016 29.7255 11.0521 29.7617 11.1003C29.8099 11.1485 29.834 11.2148 29.834 11.2991Z" fill="#7C7C7C"/>
<path d="M21.9778 12.2933C21.9778 12.4138 21.9839 12.8897 21.9959 13.7211C22.02 14.5404 22.0321 15.0103 22.0321 15.1308C22.0441 15.6127 21.9055 15.9381 21.6164 16.1067C20.8935 16.5043 20.3693 16.6971 20.044 16.6851C19.4536 16.6851 19.056 16.5766 18.8512 16.3598C18.6464 16.1549 18.5259 15.7573 18.4898 15.1669C18.4054 13.4801 18.3632 12.3235 18.3632 11.6969C18.3632 10.8053 18.4235 8.01004 18.544 3.31107C18.5681 3.046 18.6825 2.50381 18.8874 1.6845C18.8994 1.62426 18.9175 1.57606 18.9416 1.53992C18.9657 1.49172 18.9958 1.45558 19.0319 1.43148C19.0801 1.40738 19.1163 1.39533 19.1404 1.39533C19.1645 1.38328 19.2187 1.37123 19.303 1.35919C19.3874 1.33509 19.4536 1.31702 19.5018 1.30497C19.8031 1.22063 20.0561 1.16038 20.2609 1.12424C20.6706 1.0399 21.0682 1.08809 21.4537 1.26882C21.8031 1.4375 21.9959 1.76282 22.0321 2.24476C22.0441 2.44959 22.0562 3.17853 22.0682 4.43159C22.0803 5.6726 22.1043 6.44974 22.1405 6.76301C22.1766 7.00398 22.4236 7.35941 22.8815 7.82931C23.2309 8.20282 23.496 8.46789 23.6767 8.62452C23.9659 8.91369 24.0984 9.26913 24.0743 9.69083C24.0502 9.96795 23.9779 10.3174 23.8574 10.7391C23.749 11.1728 23.3695 11.3957 22.7188 11.4078C22.3694 11.4078 22.1525 11.462 22.0682 11.5704C21.9959 11.6668 21.9658 11.9078 21.9778 12.2933ZM10.4834 11.227C11.3871 11.3114 12.0558 11.3535 12.4895 11.3535C13.3932 11.4138 14.0739 11.3957 14.5318 11.2993C14.9776 11.2029 15.4475 11.3355 15.9415 11.6969C16.0017 11.7451 16.0499 11.8234 16.086 11.9319C16.1342 12.0403 16.1463 12.1367 16.1222 12.221C16.0499 12.7632 15.9113 13.2452 15.7065 13.6669C15.586 13.9079 15.4896 14.1006 15.4173 14.2452C15.1523 14.8236 14.7185 15.1368 14.1161 15.185C13.8992 15.2091 13.3751 15.2754 12.5437 15.3838C11.7124 15.5043 11.1883 15.5706 10.9714 15.5826C10.6461 15.6067 10.0858 15.6067 9.29061 15.5826C8.80866 15.5465 8.33274 15.4682 7.86284 15.3477C7.74235 15.3236 7.63994 15.2754 7.5556 15.2031C7.47126 15.1308 7.40499 15.0525 7.3568 14.9681C7.3086 14.8958 7.27246 14.7874 7.24836 14.6428C7.22426 14.4982 7.20619 14.3778 7.19414 14.2814C7.19414 14.185 7.18812 14.0344 7.17607 13.8295C7.17607 13.6247 7.17607 13.4681 7.17607 13.3596C7.11582 12.1789 7.0857 11.3656 7.0857 10.9198C7.04956 9.14864 7.04956 7.38351 7.0857 5.62441C7.0857 5.28705 7.15197 4.91354 7.28451 4.50388C7.41704 4.08218 7.5797 3.81109 7.77248 3.6906C8.09779 3.49782 8.68817 3.42553 9.54363 3.47373C9.56772 3.47373 9.62194 3.49782 9.70628 3.54602C9.79063 3.58216 9.83882 3.60626 9.85087 3.61831C9.99545 3.67855 10.0918 3.70867 10.14 3.70867C10.3569 3.69663 10.5015 3.73277 10.5738 3.81711C10.6581 3.8894 10.7244 4.04001 10.7726 4.26894C10.8449 4.53401 10.881 4.8292 10.881 5.15451C10.881 5.62441 10.8328 6.19672 10.7364 6.87144C10.7123 6.99193 10.6943 7.09435 10.6822 7.17869C10.6702 7.26303 10.6581 7.35941 10.6461 7.46785C10.634 7.56424 10.622 7.63653 10.6099 7.68473C10.6099 7.73292 10.6039 7.81124 10.5919 7.91968C10.5919 8.01607 10.5858 8.08836 10.5738 8.13655C10.5738 8.1727 10.5678 8.26306 10.5557 8.40765C10.5557 8.54018 10.5557 8.63657 10.5557 8.69682C10.5557 8.74501 10.5497 8.87152 10.5376 9.07635C10.5376 9.26913 10.5376 9.42576 10.5376 9.54625C10.5135 10.474 10.4955 11.0343 10.4834 11.227Z" fill="#7C7C7C"/>
<path d="M0.46875 5.96892C0.577188 3.75197 0.643455 2.52301 0.667553 2.28203C0.69165 1.92057 0.739845 1.70972 0.812136 1.64948C0.896477 1.57719 1.13745 1.52297 1.53506 1.48682C1.69169 1.48682 2.14351 1.4808 2.89053 1.46875C3.32428 1.46875 3.5532 1.67358 3.5773 2.08323C3.5773 2.17962 3.6014 2.40854 3.64959 2.77C3.69779 3.13146 3.72189 3.33027 3.72189 3.36641C3.74598 3.77607 3.81827 4.04114 3.93876 4.16162C4.0713 4.27006 4.33637 4.27609 4.73397 4.1797C4.98699 4.11945 5.19785 4.1315 5.36653 4.21584C5.54726 4.30018 5.66172 4.43874 5.70991 4.63152C5.87859 5.43878 5.93281 6.1617 5.87257 6.80028C5.84847 7.0292 5.54123 7.25813 4.95085 7.48705C4.43276 7.66778 3.72791 7.86056 2.83631 8.06539C2.65558 8.10153 2.48087 8.12563 2.31219 8.13768C2.15556 8.13768 2.01098 8.11961 1.87844 8.08346C1.75796 8.03526 1.64952 7.98707 1.55313 7.93888C1.45674 7.89068 1.36035 7.81839 1.26396 7.722C1.17962 7.61356 1.10733 7.51717 1.04709 7.43283C0.986842 7.33644 0.926599 7.21596 0.866355 7.07137C0.806112 6.91474 0.751893 6.78823 0.703699 6.69184C0.667553 6.5834 0.619358 6.44484 0.559115 6.27616L0.46875 5.96892Z" fill="#7C7C7C"/>
</svg>
