<svg width="190" height="63" viewBox="0 0 190 63" fill="none" xmlns="http://www.w3.org/2000/svg">
<path d="M189.99 56.9927C189.99 58.5829 189.663 59.869 189.008 60.8511C188.353 61.88 187.418 62.3711 186.202 62.3243C185.921 62.3243 185.477 62.3243 184.869 62.3243C184.261 62.3711 183.77 62.3711 183.396 62.3243C183.022 62.3243 182.554 62.3243 181.993 62.3243C181.478 62.3243 181.034 62.2776 180.66 62.184C180.332 62.0905 179.982 61.9736 179.607 61.8333C179.233 61.7397 178.906 61.576 178.625 61.3422C178.391 61.1083 178.204 60.8511 178.064 60.5705C176.708 57.2032 175.983 54.6075 175.889 52.7836C175.796 50.7258 175.679 43.921 175.539 32.3692C175.398 20.7706 175.281 14.0593 175.188 12.2353C175.188 10.6452 174.977 8.04957 174.556 4.4484L174.136 0.870613C176.848 0.730309 178.275 0.660156 178.415 0.660156C179.491 0.706924 181.057 0.847231 183.115 1.08107C185.22 1.31492 186.529 1.45522 187.044 1.50199C188.4 1.64229 189.101 2.39059 189.148 3.74687C189.195 5.29023 189.359 8.72771 189.639 14.0593C189.92 19.3441 190.037 23.4598 189.99 26.4062C189.99 29.8203 189.99 32.1821 189.99 33.4916C189.99 33.4916 189.99 41.2785 189.99 56.8524V56.9927ZM149.933 20.7238C149.933 20.6303 149.863 20.5134 149.722 20.373C149.582 20.186 149.465 20.0924 149.372 20.0924C145.864 19.3909 143.666 19.0168 142.777 18.97C142.45 18.9232 141.655 18.97 140.392 19.1103C139.176 19.2506 138.475 19.3208 138.288 19.3208C136.276 19.3208 133.681 19.2506 130.501 19.1103C129.472 18.9232 128.957 17.9177 128.957 16.0937C128.77 14.9713 128.747 14.0593 128.887 13.3578C129.214 11.8144 129.752 10.4114 130.501 9.14863C130.594 8.96155 130.711 8.72771 130.851 8.4471C130.992 8.16649 131.085 8.0028 131.132 7.95603C131.179 7.90926 131.272 7.83911 131.413 7.74557C131.6 7.60527 131.81 7.53512 132.044 7.53512C132.278 7.48835 132.629 7.4182 133.096 7.32466C138.194 6.48283 141.281 6.01514 142.356 5.9216C142.777 5.87484 143.853 5.96837 145.583 6.20222C147.361 6.38929 148.39 6.48283 148.67 6.48283C149.044 6.5296 150.073 6.5296 151.757 6.48283C153.487 6.38929 154.54 6.36591 154.914 6.41267C158.421 6.50621 161.227 7.74557 163.332 10.1308C164.454 11.3467 164.992 12.7732 164.946 14.4101C164.899 15.1116 164.946 17.6605 165.086 22.0567C165.273 26.4529 165.366 29.0018 165.366 29.7034C165.366 30.0775 165.32 30.4516 165.226 30.8258C165.179 31.1532 165.133 31.4338 165.086 31.6676C165.039 31.9015 164.922 32.2055 164.735 32.5796C164.595 32.907 164.501 33.1174 164.454 33.211C164.408 33.3045 164.267 33.5617 164.034 33.9827C163.8 34.4036 163.659 34.6374 163.613 34.6842C163.332 35.2454 162.794 35.6897 161.999 36.0171C157.837 37.7008 154.399 38.262 151.687 37.7008C150.611 37.6072 149.933 37.5838 149.652 37.6306C149.418 37.6306 148.787 37.7241 147.758 37.9112C146.823 38.0515 146.145 38.1217 145.724 38.1217C145.724 39.8521 145.677 41.0915 145.583 41.8398C150.12 41.3253 155.218 41.489 160.877 42.3308C161.672 42.4711 162.233 42.8219 162.56 43.3831C162.888 43.9443 163.005 44.6225 162.911 45.4175C162.818 46.2126 162.654 47.0077 162.42 47.8027C162.233 48.551 161.999 49.3695 161.719 50.2581C161.438 51.0999 161.274 51.7079 161.227 52.082C161.087 52.5965 160.877 53.0174 160.596 53.3448C160.362 53.6722 160.011 53.9528 159.544 54.1866C159.076 54.4205 158.679 54.5842 158.351 54.6777C158.071 54.7712 157.533 54.9115 156.738 55.0986C155.943 55.2857 155.358 55.4494 154.984 55.5897C153.113 56.1041 150.915 56.5952 148.39 57.0629C144.695 57.7644 141.327 57.6475 138.288 56.7121C134.92 55.4961 132.722 54.6543 131.693 54.1866C130.29 53.5786 129.635 52.2691 129.729 50.2581C129.776 49.0421 130.033 46.4464 130.501 42.4711C130.968 38.449 131.225 35.83 131.272 34.614C131.132 30.0775 132.418 27.8092 135.131 27.8092C135.972 27.7625 137.726 27.8326 140.392 28.0197C143.058 28.2068 144.882 28.3003 145.864 28.3003C147.594 28.2068 149.208 27.856 150.705 27.248C150.751 27.2012 150.705 26.6634 150.564 25.6345C150.564 25.4474 150.447 24.6757 150.213 23.3195C150.026 21.9632 149.933 21.098 149.933 20.7238Z" fill="black"/>
<path d="M84.7794 41.1393C84.7794 41.1393 87.3517 41.1393 92.4962 41.1393C93.9928 41.186 94.9983 41.5602 95.5128 42.2617C96.074 42.9165 96.5183 44.2494 96.8457 46.2604C97.0795 47.7102 96.7287 49.3471 95.7934 51.1711C103.417 50.984 108.351 50.8437 110.596 50.7502C113.355 50.6566 115.506 50.68 117.05 50.8203C117.471 50.8203 118.733 51.1945 120.838 51.9428C121.212 52.1299 121.399 52.3403 121.399 52.5742C121.352 52.9951 121.376 53.7668 121.469 54.8892C121.61 56.0584 121.656 56.8301 121.61 57.2042C121.61 58.0928 121.376 58.9347 120.908 59.7297C120.44 60.5716 119.903 61.0626 119.295 61.2029C118.874 61.2965 117.471 61.5069 115.085 61.8343C112.747 62.2085 111.578 62.3254 111.578 62.1851H74.5371C69.4861 62.3721 65.6979 62.4657 63.1724 62.4657C61.7694 62.5124 60.4365 62.2318 59.1737 61.6238L58.2617 56.2221L59.1737 53.5563C59.4543 52.7145 60.0155 52.2702 60.8574 52.2234L66.4696 51.6622C72.1286 51.6154 78.1383 51.5219 84.4988 51.3816C84.265 51.101 84.0779 50.8437 83.9376 50.6099C83.7973 50.3293 83.6804 50.0019 83.5868 49.6277C83.5401 49.2068 83.4933 48.9028 83.4465 48.7158C83.4465 48.5287 83.4465 48.1078 83.4465 47.453C83.4465 46.7515 83.4465 46.2604 83.4465 45.9798C83.3998 44.4364 83.353 43.3842 83.3062 42.8229C83.3062 42.1682 83.3998 41.7239 83.5868 41.49C83.7739 41.2562 84.1714 41.1393 84.7794 41.1393ZM98.0383 4.80021C98.085 4.80021 98.389 4.84698 98.9502 4.94051C99.5582 4.98728 99.9324 4.98728 100.073 4.94051C100.4 4.94051 101.125 4.75344 102.247 4.37929C103.417 4.00515 104.165 3.86484 104.492 3.95838C105.007 4.00515 106.433 4.16884 108.772 4.44945C111.157 4.68329 112.583 4.82359 113.051 4.87036C114.594 4.9639 115.366 5.66542 115.366 6.97494C115.319 9.36013 115.062 12.0025 114.594 14.9022C114.548 15.136 114.29 15.3933 113.823 15.6739C113.402 15.9077 113.028 16.048 112.7 16.0948C111.952 16.2351 110.759 16.2819 109.122 16.2351C94.9983 15.5336 84.3819 14.9723 77.2731 14.5514H75.5894C75.5894 15.0191 75.4959 15.7908 75.3088 16.8665C75.1685 17.8954 75.0984 18.6437 75.0984 19.1113C84.7794 19.8129 90.111 20.187 91.0932 20.2338C97.4069 20.6547 102.622 20.5144 106.737 19.8129L108 19.6726L110.525 19.6024C111.367 20.1636 112.209 21.0522 113.051 22.2682C113.659 23.1568 113.893 23.9285 113.752 24.5833C113.378 25.9863 112.911 26.8749 112.349 27.2491C111.788 27.5764 110.642 27.6934 108.912 27.5998C108.631 27.553 107.485 27.553 105.474 27.5998C103.463 27.5998 102.318 27.5998 102.037 27.5998C90.6722 27.1321 84.5456 26.8749 83.657 26.8281C82.5813 26.7346 81.6927 26.7346 80.9912 26.8281C80.3364 26.8749 79.8453 27.0854 79.518 27.4595C79.3309 27.6934 79.214 27.9506 79.1672 28.2312C79.1204 28.5118 79.1204 28.9093 79.1672 29.4238C79.214 29.9382 79.2374 30.2656 79.2374 30.4059C89.2926 30.8736 94.7177 31.1074 95.5128 31.1074L109.684 31.3179L112.84 32.3702C112.7 33.3523 112.373 34.428 111.858 35.5972C111.391 36.7664 110.829 37.4446 110.175 37.6316C106.948 38.4735 103.136 38.9645 98.7398 39.1048C98.7398 39.1048 94.7177 39.1048 86.6735 39.1048H85.9019C79.5414 39.1048 73.2978 38.3566 67.1711 36.86C66.1422 36.6261 65.581 35.34 65.4874 33.0016C65.4407 22.8528 65.4641 16.3052 65.5576 13.3588C65.5576 12.0025 65.9785 9.36013 66.8203 5.43159L67.1711 3.53746L71.3803 2.83594C74.3267 3.53746 77.9512 4.16884 82.2539 4.73006C85.5277 5.19774 87.9597 5.38482 89.5498 5.29128C93.8993 5.01067 96.7287 4.84698 98.0383 4.80021Z" fill="black"/>
<path d="M15.7142 49.4861C14.3111 49.4861 12.7444 49.416 11.014 49.2757C9.3303 49.1354 7.36603 48.9483 5.12114 48.7144C2.92303 48.4806 1.44982 48.3403 0.701526 48.2935C0.701526 47.9661 0.678142 47.2412 0.631374 46.1188C0.584605 44.9964 0.561221 44.2714 0.561221 43.9441C0.561221 42.6813 0.748295 41.5121 1.12244 40.4364C1.54336 39.314 2.05781 38.5189 2.6658 38.0512C3.60117 37.3965 5.09776 36.9288 7.15557 36.6482C8.27801 36.5079 10.4294 35.9467 13.6096 34.9645C13.7967 34.9178 13.9838 34.7775 14.1708 34.5436C14.4047 34.263 14.5216 34.0292 14.5216 33.8421C14.6151 33.1406 14.6619 32.439 14.6619 31.7375C14.6619 31.1295 14.6619 30.7086 14.6619 30.4748C14.6619 30.2409 14.6151 29.9135 14.5216 29.4926C14.4748 29.0717 14.3813 28.7677 14.241 28.5806C14.1007 28.3936 13.8668 28.2299 13.5395 28.0896C13.2588 27.9493 12.9081 27.8791 12.4872 27.8791C11.8324 27.9259 10.3124 27.9493 7.92725 27.9493C5.54206 27.9025 4.02208 27.9025 3.36733 27.9493C2.75934 27.9493 2.33842 27.8323 2.10458 27.5985C1.87074 27.3647 1.75382 26.9437 1.75382 26.3358C1.80058 25.4472 1.82397 24.161 1.82397 22.4774V18.619C1.82397 18.2448 1.61351 17.7537 1.19259 17.1458C0.771679 16.5378 0.397532 16.2338 0.0701527 16.2338L0 15.6024C1.91751 15.275 2.92303 15.1113 3.01656 15.1113C14.1942 15.2984 27.6168 16.0233 43.2842 17.2861C43.6116 17.2861 44.9678 17.3562 47.353 17.4965C49.785 17.5901 51.2816 17.6602 51.8428 17.707C52.0766 17.707 52.3105 17.8473 52.5443 18.1279C52.8249 18.3617 52.9886 18.5722 53.0354 18.7593C53.6434 22.5943 53.2458 26.6631 51.8428 30.9658C51.3283 32.6495 50.6268 32.8132 49.7382 31.4569C49.6447 31.3166 49.4342 31.2231 49.1068 31.1763C48.8262 31.0827 48.4755 31.0126 48.0546 30.9658C47.6336 30.9191 47.353 30.8723 47.2127 30.8255C46.0903 30.6384 45.4121 30.5449 45.1783 30.5449C44.9445 30.4981 44.5002 30.6151 43.8454 30.8957C43.518 31.036 43.3309 31.2231 43.2842 31.4569C43.0503 32.252 42.419 34.8476 41.3901 39.2438C44.9912 39.2438 48.3585 39.3608 51.492 39.5946C52.2871 39.6414 52.8951 39.9454 53.316 40.5066C53.7837 41.021 53.9474 41.6992 53.8071 42.541C53.7603 42.8684 53.6901 43.3361 53.5966 43.9441C53.5031 44.5521 53.4329 45.0197 53.3862 45.3471C53.3394 45.6277 53.2692 45.9785 53.1757 46.3994C53.0822 46.8203 52.9419 47.1711 52.7548 47.4517C52.6145 47.7323 52.4274 47.9661 52.1936 48.1532C51.4453 48.7612 50.089 49.0886 48.1247 49.1354C33.2523 49.416 22.4488 49.5329 15.7142 49.4861ZM30.797 33.8421V33.6316C31.0776 32.556 30.9607 31.6674 30.4462 30.9658C29.9318 30.2643 29.1835 29.8668 28.2014 29.7732C28.0611 29.7265 27.3361 29.7265 26.0266 29.7732H23.6414C23.4544 29.82 23.1971 29.9603 22.8698 30.1941C22.5891 30.3812 22.4255 30.5449 22.3787 30.6852C22.1448 32.3689 22.0279 34.0525 22.0279 35.7362C22.0279 36.1104 22.1215 36.4377 22.3085 36.7183C22.5424 36.9522 22.9165 37.1159 23.431 37.2094C23.9922 37.3029 24.3897 37.3497 24.6236 37.3497C24.8574 37.3497 25.3485 37.3731 26.0968 37.4199C27.9207 37.5134 29.0432 37.3965 29.4641 37.0691C29.885 36.7417 30.3293 35.6661 30.797 33.8421Z" fill="black"/>
</svg>
