<svg width="16" height="17" viewBox="0 0 16 17" fill="none" xmlns="http://www.w3.org/2000/svg">
<path fill-rule="evenodd" clip-rule="evenodd" d="M7.5299 2.69526C7.79025 2.43491 8.21236 2.43491 8.47271 2.69526L10.4727 4.69526C10.7331 4.95561 10.7331 5.37772 10.4727 5.63807C10.2124 5.89842 9.79025 5.89842 9.5299 5.63807L8.66797 4.77614V9.5C8.66797 9.86819 8.36949 10.1667 8.0013 10.1667C7.63311 10.1667 7.33464 9.86819 7.33464 9.5V4.77614L6.47271 5.63807C6.21236 5.89842 5.79025 5.89842 5.5299 5.63807C5.26955 5.37772 5.26955 4.95561 5.5299 4.69526L7.5299 2.69526ZM3.33464 7.83333C3.70283 7.83333 4.0013 8.13181 4.0013 8.5V11.8333C4.0013 12.0101 4.07154 12.1797 4.19656 12.3047C4.32159 12.4298 4.49116 12.5 4.66797 12.5H11.3346C11.5114 12.5 11.681 12.4298 11.806 12.3047C11.9311 12.1797 12.0013 12.0101 12.0013 11.8333V8.5C12.0013 8.13181 12.2998 7.83333 12.668 7.83333C13.0362 7.83333 13.3346 8.13181 13.3346 8.5V11.8333C13.3346 12.3638 13.1239 12.8725 12.7488 13.2475C12.3738 13.6226 11.8651 13.8333 11.3346 13.8333H4.66797C4.13754 13.8333 3.62883 13.6226 3.25376 13.2475C2.87868 12.8725 2.66797 12.3638 2.66797 11.8333V8.5C2.66797 8.13181 2.96645 7.83333 3.33464 7.83333Z" fill="#A1A1A1"/>
</svg>
