<svg width="20" height="20" viewBox="0 0 20 20" fill="none" xmlns="http://www.w3.org/2000/svg">
<path fill-rule="evenodd" clip-rule="evenodd" d="M14.4728 0.656955C13.2229 0.334915 11.9083 0.364685 10.6742 0.742975C9.44013 1.12126 8.33467 1.83335 7.47995 2.80054C6.62523 3.76774 6.05453 4.9524 5.83091 6.22362C5.60729 7.49484 5.73945 8.80314 6.21279 10.004L1.61379 13.897C1.265 14.1917 0.981178 14.5557 0.780289 14.9658C0.579399 15.3759 0.465815 15.8232 0.446718 16.2795C0.427622 16.7357 0.503433 17.191 0.669352 17.6164C0.83527 18.0419 1.08768 18.4283 1.41063 18.7512C1.73357 19.074 2.12001 19.3264 2.54551 19.4922C2.971 19.658 3.42627 19.7337 3.88253 19.7145C4.33879 19.6953 4.7861 19.5817 5.19616 19.3807C5.60622 19.1797 5.97011 18.8958 6.26479 18.547L10.1558 13.95C11.3568 14.4241 12.6654 14.5568 13.9371 14.3336C15.2089 14.1103 16.3941 13.5397 17.3617 12.6849C18.3294 11.83 19.0418 10.7242 19.4201 9.48976C19.7985 8.25529 19.8282 6.94022 19.5058 5.68996C19.4603 5.51428 19.3684 5.3541 19.2396 5.22624C19.1109 5.09839 18.95 5.00759 18.774 4.96339C18.598 4.91918 18.4134 4.92321 18.2395 4.97505C18.0656 5.02688 17.9089 5.12461 17.7858 5.25796L14.7408 8.56495L12.4438 7.71996L11.5968 5.41996L14.9058 2.37996C15.0399 2.25692 15.1383 2.09993 15.1906 1.92557C15.2429 1.75121 15.247 1.56597 15.2027 1.38944C15.1583 1.21291 15.067 1.05165 14.9386 0.922712C14.8101 0.793774 14.6492 0.701952 14.4728 0.656955Z" fill="#1B1B1B"/>
</svg>
