<svg width="20" height="22" viewBox="0 0 20 22" fill="none" xmlns="http://www.w3.org/2000/svg">
<path fill-rule="evenodd" clip-rule="evenodd" d="M14.4738 0.656955C13.2238 0.334915 11.9092 0.364685 10.6752 0.742975C9.4411 1.12126 8.33564 1.83335 7.48093 2.80054C6.62621 3.76774 6.05551 4.9524 5.83189 6.22362C5.60827 7.49484 5.74043 8.80314 6.21377 10.004L1.61477 13.897C1.26597 14.1917 0.982155 14.5557 0.781265 14.9658C0.580376 15.3759 0.466791 15.8232 0.447695 16.2795C0.428598 16.7357 0.50441 17.191 0.670328 17.6164C0.836246 18.0419 1.08866 18.4283 1.41161 18.7512C1.73455 19.074 2.12099 19.3264 2.54648 19.4922C2.97197 19.658 3.42725 19.7337 3.88351 19.7145C4.33977 19.6953 4.78708 19.5817 5.19714 19.3807C5.6072 19.1797 5.97108 18.8958 6.26577 18.547L10.1568 13.95C11.3577 14.4241 12.6664 14.5568 13.9381 14.3336C15.2098 14.1103 16.395 13.5397 17.3627 12.6849C18.3303 11.83 19.0427 10.7242 19.4211 9.48976C19.7995 8.25529 19.8292 6.94022 19.5068 5.68996C19.4613 5.51428 19.3694 5.3541 19.2406 5.22624C19.1118 5.09839 18.951 5.00759 18.775 4.96339C18.599 4.91918 18.4144 4.92321 18.2405 4.97505C18.0666 5.02688 17.9098 5.12461 17.7868 5.25796L14.7418 8.56495L12.4448 7.71996L11.5978 5.41996L14.9068 2.37996C15.0409 2.25692 15.1393 2.09993 15.1916 1.92557C15.2438 1.75121 15.248 1.56597 15.2036 1.38944C15.1593 1.21291 15.068 1.05165 14.9395 0.922712C14.8111 0.793774 14.6501 0.701952 14.4738 0.656955Z" fill="#636363"/>
</svg>
